<svg width="40" height="40" viewBox="0 0 40 40" fill="none" xmlns="http://www.w3.org/2000/svg">
<g id="&#236;&#158;&#165;&#236;&#149;&#160;&#236;&#149;&#132;&#236;&#157;&#180;&#236;&#189;&#152;4">
<rect id="Rectangle 430" width="40" height="40" rx="4" fill="#F6F7FB"/>
<g id="Group 593">
<path id="P" d="M9 26V9H14.1613C17.3112 9 18.9905 11.1127 19 14.0203C18.9905 16.9174 17.2922 19.0197 14.1233 19.0197H11.4668V26H9ZM11.4668 16.7815H13.7818C15.6414 16.771 16.4763 15.6205 16.4763 14.0203C16.4763 12.3992 15.6414 11.2801 13.7818 11.2801H11.4668V16.7815Z" fill="#77A1CD"/>
<path id="Vector" d="M22.75 32C21.7125 32 20.8281 31.6 20.0969 30.8C19.3656 30 19 29.0325 19 27.8974C19 26.7624 19.3656 25.7949 20.0969 24.9949C20.8281 24.1949 21.7125 23.7949 22.75 23.7949V25.4359C22.125 25.4359 21.5938 25.6752 21.1562 26.1538C20.7188 26.6325 20.5 27.2137 20.5 27.8974C20.5 28.5812 20.7188 29.1624 21.1562 29.641C21.5938 30.1197 22.125 30.359 22.75 30.359C23.375 30.359 23.9062 30.1197 24.3438 29.641C24.7812 29.1624 25 28.5812 25 27.8974H26.5C26.5 29.0325 26.1344 30 25.4031 30.8C24.6719 31.6 23.7875 32 22.75 32ZM29.5 31.1795V27.0769H25C24.45 27.0769 24.025 26.8205 23.725 26.3077C23.425 25.7949 23.3875 25.2581 23.6125 24.6974L25 21.3333H23.2937L22.8438 22.6051L21.4 22.1538L21.925 20.6769C22.0375 20.3624 22.2219 20.1197 22.4781 19.9487C22.7344 19.7778 23.0125 19.6923 23.3125 19.6923H27.2125C27.775 19.6923 28.2031 19.9419 28.4969 20.441C28.7906 20.9402 28.825 21.4701 28.6 22.0308L27.3625 25.0256H29.5C29.9125 25.0256 30.2656 25.1863 30.5594 25.5077C30.8531 25.8291 31 26.2154 31 26.6667V31.1795H29.5ZM28.75 19.2821C28.3375 19.2821 27.9844 19.1214 27.6906 18.8C27.3969 18.4786 27.25 18.0923 27.25 17.641C27.25 17.1897 27.3969 16.8034 27.6906 16.4821C27.9844 16.1607 28.3375 16 28.75 16C29.1625 16 29.5156 16.1607 29.8094 16.4821C30.1031 16.8034 30.25 17.1897 30.25 17.641C30.25 18.0923 30.1031 18.4786 29.8094 18.8C29.5156 19.1214 29.1625 19.2821 28.75 19.2821Z" fill="#77A1CD"/>
</g>
</g>
</svg>
