<svg width="40" height="40" viewBox="0 0 40 40" fill="none" xmlns="http://www.w3.org/2000/svg">
<g id="&#236;&#158;&#165;&#236;&#149;&#160;&#236;&#149;&#132;&#236;&#157;&#180;&#236;&#189;&#152;14">
<rect id="Rectangle 443" width="40" height="40" rx="4" fill="#F6F7FB"/>
<g id="Group 606">
<g id="Group 590">
<g id="Group 578">
<path id="Vector" d="M22.2219 21.4431C21.5369 21.6758 20.7634 21.3341 20.4928 20.6802C20.2222 20.0263 20.5604 19.3056 21.2455 19.073C21.9306 18.8404 22.7041 19.182 22.9746 19.8359C23.2452 20.4899 22.907 21.2105 22.2219 21.4431Z" fill="#77A1CD"/>
<path id="Vector_2" d="M25.0957 24.9559L25.0749 25.0486C25.0593 25.1186 25.0107 25.1804 24.9431 25.2162C24.898 25.239 24.8477 25.2503 24.7974 25.2471L22.0554 25.1007L22.2358 24.9445L21.7293 23.7131L20.0782 25.2764C20.0644 25.291 20.0488 25.3024 20.0331 25.3138C19.8667 25.4309 19.6238 25.4146 19.4678 25.2682C19.2961 25.1072 19.2908 24.8485 19.4573 24.6908L21.4397 22.8135C21.4172 22.3093 21.7241 21.8326 22.2496 21.6537L22.352 21.6179C23.0145 21.3918 23.7637 21.7236 24.0239 22.3564L25.094 24.9543L25.0957 24.9559Z" fill="#77A1CD"/>
<path id="Vector_3" d="M20.7842 26.4192L21.1744 27.0845C21.2334 27.187 21.2126 27.3123 21.1207 27.3903L19.9344 28.4152C19.702 28.5827 19.3655 28.5567 19.1574 28.342C18.9389 28.1175 18.9493 27.7726 19.1799 27.5742L20.6975 26.2695L20.7842 26.4192Z" fill="#77A1CD"/>
<g id="Group">
<path id="Vector_4" d="M23.9909 29.1598L26.0374 27.25L27.6729 28.8133C26.5178 29.2557 25.2101 29.381 23.9926 29.1614L23.9909 29.1598Z" fill="#77A1CD"/>
<path id="Vector_5" d="M21.4865 26.9192L21.0963 26.2539L24.3066 26.3954L22.2791 28.2727L22.0138 27.8188L20.354 29.2519C20.354 29.2519 20.3471 29.2584 20.3436 29.2601C20.2274 29.3495 20.0522 29.3381 19.9464 29.2292C19.8372 29.1169 19.8424 28.9445 19.9568 28.8453L21.3617 27.6317C21.5733 27.4495 21.6253 27.1535 21.4865 26.9176V26.9192Z" fill="#77A1CD"/>
<path id="Vector_6" d="M27.352 26.0264L31.0722 22.6055C31.4849 24.3526 30.4842 26.3469 29.1887 27.7833L27.352 26.0281V26.0264Z" fill="#77A1CD"/>
<path id="Vector_7" d="M24.6117 26.1133L20.6279 25.9002C20.4683 25.892 20.3434 25.7635 20.3469 25.6139C20.3504 25.4642 20.4822 25.3487 20.6418 25.3585L24.7782 25.5797C25.0869 25.596 25.3609 25.3991 25.4251 25.1161L26.568 20.0961C26.6461 19.7528 27.0294 19.5528 27.3832 19.6634C28.6007 20.0456 29.4574 20.3596 30.1269 21.0038L24.6099 26.1149L24.6117 26.1133Z" fill="#77A1CD"/>
</g>
<path id="Vector_8" d="M29.9223 29.6415C30.4496 29.2299 31.2439 29.3112 31.6966 29.822C32.1492 30.3328 32.0903 31.0795 31.563 31.491C31.0358 31.9026 30.2414 31.8212 29.7888 31.3088C29.3361 30.798 29.3951 30.0514 29.9223 29.6398V29.6415ZM30.9491 30.9152C31.1537 30.8078 31.2266 30.5654 31.1121 30.3735C30.9976 30.1815 30.7392 30.1132 30.5345 30.2206C30.3299 30.3279 30.2571 30.5703 30.3715 30.7623C30.486 30.9542 30.7444 31.0225 30.9491 30.9152Z" fill="#77A1CD"/>
<path id="Vector_9" d="M20.0661 29.8875C20.5934 29.476 21.3877 29.5573 21.8404 30.0681C22.293 30.5789 22.2341 31.3256 21.7068 31.7371C21.1796 32.1487 20.3852 32.0673 19.9326 31.5565C19.4799 31.0458 19.5389 30.2991 20.0661 29.8875ZM21.1033 31.1889C21.3079 31.0816 21.3808 30.8392 21.2663 30.6472C21.1518 30.4553 20.8934 30.3869 20.6888 30.4943C20.4841 30.6017 20.4113 30.8441 20.5257 31.036C20.6402 31.228 20.8986 31.2963 21.1033 31.1889Z" fill="#77A1CD"/>
</g>
<path id="Vector_10" d="M22 29.276L30.3977 21C30.4383 21.1998 30.5242 21.3935 30.6657 21.5587C30.7621 21.6714 30.875 21.763 31 21.8336L26.6137 26.1233L29.4551 29.0117C29.3994 29.0342 29.3437 29.0552 29.2909 29.0853C29.2187 29.1258 29.1509 29.1724 29.0862 29.225C28.9311 29.3541 28.8136 29.5118 28.7323 29.6831L25.9135 26.8188L22.7107 30C22.6565 29.8798 22.5918 29.7642 22.5059 29.6605C22.3644 29.4908 22.1897 29.3647 22 29.2775V29.276Z" fill="#77A1CD"/>
</g>
<g id="Group 591">
<path id="Vector_11" fill-rule="evenodd" clip-rule="evenodd" d="M8.72795 18H17.272C17.6735 18 18 18.4514 18 19C18 19.5514 17.6714 20 17.272 20H8.72795C8.32654 20 8 19.5486 8 19C8 18.4486 8.32862 18 8.72795 18Z" fill="#77A1CD"/>
<path id="Vector_12" fill-rule="evenodd" clip-rule="evenodd" d="M14.5978 12H11.2503C11.0849 12.1634 11 12.3707 11 12.823V16.5915C11 16.8167 11.219 17 11.4872 17H14.5128C14.7832 17 15 16.8167 15 16.5915V12.823C15 12.3707 14.7698 12.1574 14.5955 12H14.5978Z" fill="#77A1CD"/>
<path id="Vector_13" fill-rule="evenodd" clip-rule="evenodd" d="M13.1779 11C14.0035 11 14.6779 10.3261 14.6779 9.4988C14.6779 8.67146 14.0059 8 13.1779 8C12.3499 8 11.6779 8.67386 11.6779 9.4988C11.6779 10.3237 12.3523 11 13.1779 11Z" fill="#77A1CD"/>
<path id="Vector_14" fill-rule="evenodd" clip-rule="evenodd" d="M14.0696 12.6442C13.8905 12.4138 14.0696 12.1445 14.4627 12.0399C14.8582 11.9371 15.3234 12.0399 15.5 12.2685L17.9304 15.3558C18.1095 15.5862 17.9304 15.8555 17.5373 15.9601C17.1418 16.0629 16.6766 15.9601 16.5 15.7315L14.0696 12.6442Z" fill="#77A1CD"/>
<path id="Vector_15" fill-rule="evenodd" clip-rule="evenodd" d="M11.9304 12.6442C12.1095 12.4138 11.9304 12.1445 11.5373 12.0399C11.1418 11.9371 10.6766 12.0399 10.5 12.2685L8.06961 15.3558C7.8905 15.5862 8.06961 15.8555 8.46265 15.9601C8.85818 16.0629 9.32337 15.9601 9.49999 15.7315L11.9304 12.6442Z" fill="#77A1CD"/>
</g>
</g>
</g>
</svg>
