<svg width="40" height="40" viewBox="0 0 40 40" fill="none" xmlns="http://www.w3.org/2000/svg">
<g id="&#236;&#158;&#165;&#236;&#149;&#160;&#236;&#149;&#132;&#236;&#157;&#180;&#236;&#189;&#152;8">
<rect id="Rectangle 435" width="40" height="40" rx="4" fill="#F6F7FB"/>
<g id="Group 588">
<path id="Vector" d="M10.0006 12C11.1021 12 12 11.1019 12 10C12 8.89814 11.1009 8 10.0006 8C8.90042 8 8 8.89814 8 10C8 11.1019 8.89785 12 9.99936 12H10.0006Z" fill="#77A1CD"/>
<path id="Vector_2" d="M10.224 15.4197C9.88625 15.0559 9.93605 14.5116 10.3355 14.204C10.735 13.8964 11.3326 13.9418 11.6704 14.3056C12.2896 14.974 13.0009 15.5134 13.8518 15.8535C14.7092 16.1966 15.7301 16.3494 16.9686 16.2459C17.4894 16.2025 17.9484 16.5526 17.996 17.0258C18.0436 17.4991 17.6593 17.9181 17.1397 17.9605C15.558 18.0926 14.2329 17.8875 13.0962 17.433C11.9518 16.9755 11.0197 16.2755 10.2251 15.4197H10.224Z" fill="#77A1CD"/>
<path id="Vector_3" d="M11 22H9V31H11V22Z" fill="#77A1CD"/>
<path id="Vector_4" d="M9.27529 13H10.7247C11.4286 13 12 13.5644 12 14.2597V22.9145C12 22.9619 11.9614 23 11.9135 23H8.08655C8.03858 23 8 22.9619 8 22.9145V14.2597C8 13.5644 8.57143 13 9.27529 13Z" fill="#77A1CD"/>
<path id="Vector_5" fill-rule="evenodd" clip-rule="evenodd" d="M30 29.0079C29.7392 29.3497 29.444 29.6666 29.1179 29.9618C27.7279 31.2201 25.8058 32 23.6847 32C21.5636 32 19.6416 31.2201 18.2515 29.9618C16.8615 28.7034 16 26.9634 16 25.0433C16 23.1231 16.8615 21.3831 18.2515 20.1248C18.7355 19.6867 19.2812 19.3107 19.8784 19L20.4138 20.8145C20.1427 20.9885 19.8853 21.1812 19.6519 21.3924C18.6188 22.3277 17.9804 23.6171 17.9804 25.0433C17.9804 26.4694 18.6188 27.7588 19.6519 28.6941C20.6815 29.6293 22.1093 30.2072 23.6847 30.2072C25.2601 30.2072 26.6845 29.6293 27.7176 28.6941C28.2118 28.2467 28.6134 27.7216 28.8983 27.1374L29.9966 29.011L30 29.0079Z" fill="#77A1CD"/>
<path id="Vector_6" fill-rule="evenodd" clip-rule="evenodd" d="M21 15C22.1004 15 23 14.1004 23 13C23 11.8996 22.1004 11 21 11C19.8996 11 19 11.8996 19 13C19 14.1004 19.8996 15 21 15Z" fill="#77A1CD"/>
<path id="Vector_7" fill-rule="evenodd" clip-rule="evenodd" d="M23.1262 21C22.5066 21 22 20.3304 22 19.5C22 18.6695 22.5027 18 23.1262 18H28.8738C29.4934 18 30 18.6695 30 19.5C30 20.3304 29.4973 21 28.8738 21H23.1262Z" fill="#77A1CD"/>
<path id="Vector_8" fill-rule="evenodd" clip-rule="evenodd" d="M20.0041 20.3103C20.0795 20.5784 19.9037 20.848 19.6106 20.9144C19.3176 20.9808 19.0205 20.8179 18.9451 20.5498L18.3051 18.2866L16.9544 17.7149C17.2322 17.4927 17.4104 17.1738 17.4357 16.8226L18.9945 17.4823C19.1383 17.5423 19.2559 17.661 19.2985 17.8147L20.0041 20.3103Z" fill="#77A1CD"/>
<path id="Vector_9" d="M29.1167 22.9815C28.9569 22.6778 28.6203 22.4689 28.2361 22.4689H24.5573L22.9966 17.0516C22.779 16.2954 21.9426 15.8461 21.13 16.0486C20.3174 16.2511 19.8346 17.0295 20.0522 17.7858L21.6162 23.2188C21.7046 23.5226 21.8882 23.7758 22.133 23.9561C22.3132 24.165 22.5886 24.2979 22.898 24.2979H27.6479L30.334 29L32 28.0286L29.1201 22.9815H29.1167Z" fill="#77A1CD"/>
</g>
</g>
</svg>
