<svg width="40" height="40" viewBox="0 0 40 40" fill="none" xmlns="http://www.w3.org/2000/svg">
<g id="&#236;&#158;&#165;&#236;&#149;&#160;&#236;&#149;&#132;&#236;&#157;&#180;&#236;&#189;&#152;6">
<rect id="Rectangle 433" width="40" height="40" rx="4" fill="#F6F7FB"/>
<g id="Group 595">
<path id="Vector" d="M24.7185 8.19433L24.7185 11.2081L25.7695 11.2081C25.8678 11.2081 25.9368 11.2448 25.9765 11.3182C26.0162 11.3916 26.0056 11.4607 25.9447 11.5255L23.6752 13.9287C23.6301 13.9762 23.5718 14 23.5005 14C23.4291 14 23.3705 13.9762 23.3248 13.9287L21.0553 11.5255C20.9944 11.4607 20.9838 11.3916 21.0235 11.3182C21.0632 11.2448 21.1322 11.2081 21.2305 11.2081L22.2815 11.2081L22.2815 8.19433C22.2815 8.13927 22.3034 8.09314 22.3471 8.0559C22.3909 8.01864 22.4452 8 22.5099 8L24.4901 8C24.5548 8 24.609 8.01864 24.6528 8.0559C24.6966 8.09314 24.7185 8.13927 24.7185 8.19433Z" fill="#77A1CD"/>
<path id="Vector_2" d="M17.8125 30C17.0344 30 16.3711 29.725 15.8227 29.175C15.2742 28.625 15 27.9598 15 27.1795C15 26.3991 15.2742 25.734 15.8227 25.184C16.3711 24.634 17.0344 24.359 17.8125 24.359V25.4872C17.3438 25.4872 16.9453 25.6517 16.6172 25.9808C16.2891 26.3098 16.125 26.7094 16.125 27.1795C16.125 27.6496 16.2891 28.0491 16.6172 28.3782C16.9453 28.7073 17.3438 28.8718 17.8125 28.8718C18.2812 28.8718 18.6797 28.7073 19.0078 28.3782C19.3359 28.0491 19.5 27.6496 19.5 27.1795H20.625C20.625 27.9598 20.3508 28.625 19.8023 29.175C19.2539 29.725 18.5906 30 17.8125 30ZM22.875 29.4359V26.6154H19.5C19.0875 26.6154 18.7688 26.4391 18.5438 26.0865C18.3188 25.734 18.2906 25.365 18.4594 24.9795L19.5 22.6667H18.2203L17.8828 23.541L16.8 23.2308L17.1938 22.2154C17.2781 21.9991 17.4164 21.8323 17.6086 21.7147C17.8008 21.5972 18.0094 21.5385 18.2344 21.5385H21.1594C21.5812 21.5385 21.9023 21.71 22.1227 22.0532C22.343 22.3964 22.3688 22.7607 22.2 23.1462L21.2719 25.2051H22.875C23.1844 25.2051 23.4492 25.3156 23.6695 25.5365C23.8898 25.7575 24 26.0231 24 26.3333V29.4359H22.875ZM22.3125 21.2564C22.0031 21.2564 21.7383 21.1459 21.518 20.925C21.2977 20.7041 21.1875 20.4385 21.1875 20.1282C21.1875 19.8179 21.2977 19.5524 21.518 19.3314C21.7383 19.1105 22.0031 19 22.3125 19C22.6219 19 22.8867 19.1105 23.107 19.3314C23.3273 19.5524 23.4375 19.8179 23.4375 20.1282C23.4375 20.4385 23.3273 20.7041 23.107 20.925C22.8867 21.1459 22.6219 21.2564 22.3125 21.2564Z" fill="#77A1CD"/>
<rect id="Rectangle 432" x="12.6" y="15.6" width="14.8" height="15.8" rx="1.4" stroke="#77A1CD" stroke-width="1.2"/>
<path id="Vector_3" d="M15.2815 13.8057V10.7919H14.2305C14.1322 10.7919 14.0632 10.7552 14.0235 10.6818C13.9838 10.6084 13.9944 10.5393 14.0553 10.4745L16.3248 8.07125C16.3699 8.02375 16.4282 8 16.4995 8C16.5709 8 16.6295 8.02375 16.6752 8.07125L18.9447 10.4745C19.0056 10.5393 19.0162 10.6084 18.9765 10.6818C18.9368 10.7552 18.8678 10.7919 18.7695 10.7919H17.7185V13.8057C17.7185 13.8607 17.6966 13.9069 17.6529 13.9441C17.6091 13.9814 17.5548 14 17.4901 14H15.5099C15.4452 14 15.391 13.9814 15.3472 13.9441C15.3034 13.9069 15.2815 13.8607 15.2815 13.8057Z" fill="#77A1CD"/>
</g>
</g>
</svg>
