<svg width="40" height="40" viewBox="0 0 40 40" fill="none" xmlns="http://www.w3.org/2000/svg">
<g id="&#236;&#158;&#165;&#236;&#149;&#160;&#236;&#149;&#132;&#236;&#157;&#180;&#236;&#189;&#152;15">
<rect id="Rectangle 444" width="40" height="40" rx="4" fill="#F6F7FB"/>
<g id="Group 607">
<path id="Vector" d="M19.3766 17.0196C18.5446 15.307 17.124 13.6408 15.1495 13.1518C11.518 12.2503 8.56789 15.497 9.05224 19.3671C9.38364 22.0159 11.6849 27.8651 14.4566 28.7527C18.0904 29.916 20 26.5975 20 26.5975" stroke="#77A1CD" stroke-linecap="round" stroke-linejoin="round"/>
<path id="Vector_2" d="M19.2273 24.0898C19.2273 24.0898 17.1957 23.2836 17.9274 22.1672C18.5787 21.1724 19.5141 20.4183 18.651 18.7859C17.788 17.156 15.7376 15.0598 13.0118 16.6648C10.9882 17.8581 13.5184 22.9636 13.5184 22.9636" stroke="#77A1CD" stroke-linecap="round" stroke-linejoin="round"/>
<path id="Vector 2" d="M22.8334 22.3846L24.7281 19.9231L25.6755 23L28.5176 19L29.9386 23L31.8334 20.5385" stroke="#77A1CD" stroke-width="1.3" stroke-linecap="round"/>
</g>
</g>
</svg>
