<svg width="40" height="40" viewBox="0 0 40 40" fill="none" xmlns="http://www.w3.org/2000/svg">
<rect width="40" height="40" rx="4" fill="#F6F7FB"/>
<path d="M23.0622 33C21.9383 33 20.9804 32.5739 20.1887 31.724C19.3969 30.8741 19 29.8459 19 28.6394C19 27.4329 19.3969 26.4047 20.1887 25.5548C20.9804 24.7049 21.9383 24.2788 23.0622 24.2788V26.0226C22.3848 26.0226 21.811 26.2773 21.3364 26.7845C20.8618 27.294 20.6266 27.91 20.6266 28.6371C20.6266 29.3643 20.8639 29.9802 21.3364 30.4897C21.811 30.9992 22.3848 31.2516 23.0622 31.2516C23.7396 31.2516 24.3135 30.9969 24.7881 30.4897C25.2627 29.9826 25.4978 29.3643 25.4978 28.6371H27.1223C27.1223 29.8436 26.7254 30.8718 25.9336 31.7217C25.1419 32.5716 24.184 32.9977 23.0601 32.9977L23.0622 33ZM30.3712 32.127V27.7687H25.4978C24.9024 27.7687 24.4429 27.4954 24.1172 26.9512C23.7914 26.407 23.7526 25.835 23.9963 25.2399L25.4978 21.6667H23.6512L23.1636 23.0191L21.5996 22.5397L22.1691 20.9696C22.2899 20.6362 22.4905 20.3768 22.7688 20.1962C23.0471 20.0155 23.347 19.9229 23.6728 19.9229H27.8968C28.5051 19.9229 28.969 20.1892 29.2883 20.7195C29.6075 21.2498 29.6442 21.8126 29.4004 22.4077L28.0607 25.5896H30.3755C30.8221 25.5896 31.2039 25.7609 31.5232 26.1013C31.8425 26.4418 32 26.854 32 27.3333V32.127H30.3755H30.3712ZM29.5601 19.4875C29.1135 19.4875 28.7317 19.3162 28.4124 18.9758C28.0931 18.6353 27.9356 18.2231 27.9356 17.7438C27.9356 17.2644 28.0953 16.8545 28.4124 16.5118C28.7295 16.1691 29.1135 16 29.5601 16C30.0066 16 30.3885 16.1714 30.7078 16.5118C31.0271 16.8522 31.1845 17.2644 31.1845 17.7438C31.1845 18.2231 31.0249 18.633 30.7078 18.9758C30.3906 19.3185 30.0066 19.4875 29.5601 19.4875Z" fill="#77A1CD"/>
<g clip-path="url(#clip0_249_7848)">
<path d="M10.6373 9H17.3626C17.6367 9 17.859 9.22228 17.859 9.49639V13.2363C17.859 13.2846 17.8199 13.3237 17.7716 13.3237H16.5837C16.5547 13.3237 16.527 13.3104 16.5093 13.2873C16.4545 13.2154 16.467 13.1416 16.5093 13.096H11.4909C11.5332 13.1416 11.5457 13.2154 11.4909 13.2873C11.4732 13.3104 11.4456 13.3237 11.4165 13.3237H10.2286C10.1803 13.3237 10.1412 13.2846 10.1412 13.2363V9.49639C10.1412 9.22228 10.3635 9 10.6376 9H10.6373Z" fill="#77A1CD"/>
<path d="M9.00057 14.5476C9.00057 14.5427 9.00138 14.5381 9.00193 14.5332C9.00247 14.5292 9.00328 14.5248 9.00437 14.5208C9.00546 14.5164 9.00681 14.5121 9.00844 14.508C9.01007 14.5037 9.0117 14.4996 9.0136 14.4958C9.0155 14.492 9.0174 14.4882 9.01957 14.4847C9.02201 14.4806 9.02472 14.4765 9.02771 14.4727C9.02907 14.4711 9.02988 14.4689 9.03124 14.4673L10.1725 13.0997C10.2205 13.0422 10.306 13.0343 10.3635 13.0823C10.3638 13.0823 10.3641 13.0829 10.3644 13.0832C10.4357 13.1437 10.5229 13.1825 10.6165 13.1825H17.383C17.4767 13.1825 17.5638 13.1437 17.6352 13.0832C17.6354 13.0832 17.6357 13.0826 17.636 13.0823C17.6935 13.0343 17.779 13.0419 17.827 13.0997L18.9685 14.4673C18.9699 14.4689 18.971 14.4708 18.9721 14.4727C18.9751 14.4765 18.9778 14.4806 18.9802 14.4847C18.9824 14.4885 18.9846 14.492 18.9862 14.4958C18.9881 14.4999 18.9897 14.5039 18.9913 14.508C18.993 14.5123 18.9943 14.5164 18.9954 14.5208C18.9965 14.5248 18.9973 14.5289 18.9979 14.533C18.9987 14.5379 18.9992 14.5425 18.9992 14.5474C18.9992 14.5495 18.9998 14.5517 18.9998 14.5539V17.7824C18.9998 18.0617 18.7734 18.2878 18.4944 18.2878H9.5051C9.22583 18.2878 8.99976 18.0614 8.99976 17.7824V14.5539C8.99976 14.5517 9.0003 14.5495 9.0003 14.5474L9.00057 14.5476ZM9.64107 18.0167H18.359C18.5631 18.0167 18.7286 17.8511 18.7286 17.647V15.0598C18.7286 14.8557 18.5631 14.6901 18.359 14.6901H9.64107C9.43698 14.6901 9.27143 14.8557 9.27143 15.0598V17.647C9.27143 17.8511 9.43698 18.0167 9.64107 18.0167Z" fill="#77A1CD"/>
<path d="M9.1357 15.4823H18.8643C18.9392 15.4823 19 15.4215 19 15.3466C19 15.2717 18.9392 15.2109 18.8643 15.2109H9.1357C9.06079 15.2109 9 15.2717 9 15.3466C9 15.4215 9.06079 15.4823 9.1357 15.4823Z" fill="#77A1CD"/>
<path d="M14.488 11.8164H16.6084C16.6834 11.8164 16.7441 11.8772 16.7441 11.9521V13.5734C16.7441 13.6484 16.6834 13.7091 16.6084 13.7091H14.488C14.413 13.7091 14.3523 13.6484 14.3523 13.5734V11.9521C14.3523 11.8772 14.413 11.8164 14.488 11.8164Z" fill="white"/>
<path d="M11.3916 11.8164H13.512C13.587 11.8164 13.6477 11.8772 13.6477 11.9521V13.5734C13.6477 13.6484 13.587 13.7091 13.512 13.7091H11.3916C11.3166 13.7091 11.2559 13.6484 11.2559 13.5734V11.9521C11.2559 11.8772 11.3166 11.8164 11.3916 11.8164Z" fill="white"/>
<path d="M13.3722 12.918H14.4543C14.5848 12.918 14.6907 13.0238 14.6907 13.1544C14.6907 13.2849 14.5848 13.3907 14.4543 13.3907H13.3722C13.2417 13.3907 13.1358 13.2849 13.1358 13.1544C13.1358 13.0238 13.2417 12.918 13.3722 12.918Z" fill="white"/>
<path d="M9.15066 15.4844H18.7286V18.0952H9.15066V15.4844Z" fill="#77A1CD"/>
<path d="M9.88128 18.0388V18.0195H10.7107V18.0388C10.7506 18.0624 10.7777 18.1056 10.7777 18.1552V18.7784C10.7777 18.9016 10.6778 19.0015 10.5546 19.0015H10.0373C9.91412 19.0015 9.81424 18.9016 9.81424 18.7784V18.1552C9.81424 18.1056 9.84138 18.0624 9.88128 18.0388Z" fill="#77A1CD"/>
<path d="M17.2953 18.0388V18.0195H18.1247V18.0388C18.1646 18.0624 18.1918 18.1056 18.1918 18.1552V18.7784C18.1918 18.9016 18.0919 19.0015 17.9687 19.0015H17.4514C17.3282 19.0015 17.2283 18.9016 17.2283 18.7784V18.1552C17.2283 18.1056 17.2554 18.0624 17.2953 18.0388Z" fill="#77A1CD"/>
<path d="M9.20654 14.6055H18.8019V15.6707H9.20654V14.6055Z" fill="#77A1CD"/>
</g>
<defs>
<clipPath id="clip0_249_7848">
<rect width="10" height="10" fill="white" transform="matrix(-1 0 0 1 19 9)"/>
</clipPath>
</defs>
</svg>
