<svg width="40" height="40" viewBox="0 0 40 40" fill="none" xmlns="http://www.w3.org/2000/svg">
<g id="&#236;&#158;&#165;&#236;&#149;&#160;&#236;&#149;&#132;&#236;&#157;&#180;&#236;&#189;&#152;7">
<rect id="Rectangle 434" width="40" height="40" rx="4" fill="#F6F7FB"/>
<g id="Group 597">
<g id="Group 596">
<path id="Vector" fill-rule="evenodd" clip-rule="evenodd" d="M8.72795 17H17.272C17.6735 17 18 17.4514 18 18C18 18.5514 17.6714 19 17.272 19H8.72795C8.32654 19 8 18.5486 8 18C8 17.4486 8.32862 17 8.72795 17Z" fill="#77A1CD"/>
<path id="Vector_2" fill-rule="evenodd" clip-rule="evenodd" d="M14.5978 11H11.2503C11.0849 11.1634 11 11.3707 11 11.823V15.5915C11 15.8167 11.219 16 11.4872 16H14.5128C14.7832 16 15 15.8167 15 15.5915V11.823C15 11.3707 14.7698 11.1574 14.5955 11H14.5978Z" fill="#77A1CD"/>
<path id="Vector_3" fill-rule="evenodd" clip-rule="evenodd" d="M13.1779 10C14.0035 10 14.6779 9.32614 14.6779 8.4988C14.6779 7.67146 14.0059 7 13.1779 7C12.3499 7 11.6779 7.67386 11.6779 8.4988C11.6779 9.32374 12.3523 10 13.1779 10Z" fill="#77A1CD"/>
<path id="Vector_4" fill-rule="evenodd" clip-rule="evenodd" d="M14.0696 11.6442C13.8905 11.4138 14.0696 11.1445 14.4627 11.0399C14.8582 10.9371 15.3234 11.0399 15.5 11.2685L17.9304 14.3558C18.1095 14.5862 17.9304 14.8555 17.5373 14.9601C17.1418 15.0629 16.6766 14.9601 16.5 14.7315L14.0696 11.6442Z" fill="#77A1CD"/>
<path id="Vector_5" fill-rule="evenodd" clip-rule="evenodd" d="M11.9304 11.6442C12.1095 11.4138 11.9304 11.1445 11.5373 11.0399C11.1418 10.9371 10.6766 11.0399 10.5 11.2685L8.06961 14.3558C7.8905 14.5862 8.06961 14.8555 8.46265 14.9601C8.85818 15.0629 9.32337 14.9601 9.49999 14.7315L11.9304 11.6442Z" fill="#77A1CD"/>
</g>
<path id="Vector_6" d="M22.375 32C21.1646 32 20.1328 31.6 19.2797 30.8C18.4266 30 18 29.0325 18 27.8974C18 26.7624 18.4266 25.7949 19.2797 24.9949C20.1328 24.1949 21.1646 23.7949 22.375 23.7949V25.4359C21.6458 25.4359 21.026 25.6752 20.5156 26.1538C20.0052 26.6325 19.75 27.2137 19.75 27.8974C19.75 28.5812 20.0052 29.1624 20.5156 29.641C21.026 30.1197 21.6458 30.359 22.375 30.359C23.1042 30.359 23.724 30.1197 24.2344 29.641C24.7448 29.1624 25 28.5812 25 27.8974H26.75C26.75 29.0325 26.3234 30 25.4703 30.8C24.6172 31.6 23.5854 32 22.375 32ZM30.25 31.1795V27.0769H25C24.3583 27.0769 23.8625 26.8205 23.5125 26.3077C23.1625 25.7949 23.1188 25.2581 23.3812 24.6974L25 21.3333H23.0094L22.4844 22.6051L20.8 22.1538L21.4125 20.6769C21.5438 20.3624 21.7589 20.1197 22.0578 19.9487C22.3568 19.7778 22.6813 19.6923 23.0312 19.6923H27.5813C28.2375 19.6923 28.737 19.9419 29.0797 20.441C29.4224 20.9402 29.4625 21.4701 29.2 22.0308L27.7563 25.0256H30.25C30.7312 25.0256 31.1432 25.1863 31.4859 25.5077C31.8286 25.8291 32 26.2154 32 26.6667V31.1795H30.25ZM29.375 19.2821C28.8938 19.2821 28.4818 19.1214 28.1391 18.8C27.7964 18.4786 27.625 18.0923 27.625 17.641C27.625 17.1897 27.7964 16.8034 28.1391 16.4821C28.4818 16.1607 28.8938 16 29.375 16C29.8562 16 30.2682 16.1607 30.6109 16.4821C30.9536 16.8034 31.125 17.1897 31.125 17.641C31.125 18.0923 30.9536 18.4786 30.6109 18.8C30.2682 19.1214 29.8562 19.2821 29.375 19.2821Z" fill="#77A1CD"/>
</g>
</g>
</svg>
