<svg width="40" height="40" viewBox="0 0 40 40" fill="none" xmlns="http://www.w3.org/2000/svg">
<g id="&#236;&#158;&#165;&#236;&#149;&#160;&#236;&#149;&#132;&#236;&#157;&#180;&#236;&#189;&#152;3">
<rect id="Rectangle 429" width="40" height="40" rx="4" fill="#F6F7FB"/>
<g id="Group 592">
<path id="Vector" d="M11.75 30.0012C10.7125 30.0012 9.82812 29.6071 9.09687 28.819C8.36562 28.0309 8 27.0777 8 25.9594C8 24.8412 8.36562 23.888 9.09687 23.0999C9.82812 22.3117 10.7125 21.9177 11.75 21.9177V23.5344C11.125 23.5344 10.5938 23.7701 10.1562 24.2417C9.71875 24.7132 9.5 25.2858 9.5 25.9594C9.5 26.6331 9.71875 27.2057 10.1562 27.6772C10.5938 28.1487 11.125 28.3845 11.75 28.3845C12.375 28.3845 12.9062 28.1487 13.3438 27.6772C13.7812 27.2057 14 26.6331 14 25.9594H15.5C15.5 27.0777 15.1344 28.0309 14.4031 28.819C13.6719 29.6071 12.7875 30.0012 11.75 30.0012ZM18.5 29.1929V25.1511H14C13.45 25.1511 13.025 24.8985 12.725 24.3933C12.425 23.888 12.3875 23.3592 12.6125 22.8069L14 19.4926H12.2937L11.8438 20.7455L10.4 20.301L10.925 18.8459C11.0375 18.536 11.2219 18.2969 11.4781 18.1285C11.7344 17.9601 12.0125 17.8759 12.3125 17.8759H16.2125C16.775 17.8759 17.2031 18.1218 17.4969 18.6135C17.7906 19.1053 17.825 19.6273 17.6 20.1797L16.3625 23.1302H18.5C18.9125 23.1302 19.2656 23.2885 19.5594 23.6051C19.8531 23.9217 20 24.3023 20 24.7469V29.1929H18.5ZM17.75 17.4717C17.3375 17.4717 16.9844 17.3134 16.6906 16.9968C16.3969 16.6802 16.25 16.2996 16.25 15.855C16.25 15.4104 16.3969 15.0298 16.6906 14.7132C16.9844 14.3966 17.3375 14.2383 17.75 14.2383C18.1625 14.2383 18.5156 14.3966 18.8094 14.7132C19.1031 15.0298 19.25 15.4104 19.25 15.855C19.25 16.2996 19.1031 16.6802 18.8094 16.9968C18.5156 17.3134 18.1625 17.4717 17.75 17.4717Z" fill="#77A1CD"/>
<path id="Vector_2" d="M30.0646 11.3877C29.9908 10.964 29.6123 10.7071 29.0923 10.7045C28.4 10.7071 27.9415 11.1626 27.9415 11.9704C27.9415 12.7967 28.4062 13.2336 29.0862 13.2363C29.5938 13.2336 29.9754 12.9953 30.0646 12.5795L31 12.5848C30.8985 13.2945 30.2062 13.9407 29.0738 13.9407C27.8831 13.9407 27 13.2177 27 11.9704C27 10.7177 27.8985 10 29.0738 10C30.1015 10 30.8769 10.5058 31 11.3877H30.0646Z" fill="#77A1CD"/>
<path id="Vector_3" d="M22.347 13.9993L21.0938 10.0586H22.0867L22.8253 12.8128H22.8617L23.6669 10.0586H24.5206L25.3258 12.8182H25.3622L26.1008 10.0586H27.0938L25.8405 13.9993H24.9505L24.1149 11.3976H24.0786L23.237 13.9993H22.347Z" fill="#77A1CD"/>
</g>
</g>
</svg>
