<svg width="40" height="40" viewBox="0 0 40 40" fill="none" xmlns="http://www.w3.org/2000/svg">
<g id="&#236;&#158;&#165;&#236;&#149;&#160;&#236;&#149;&#132;&#236;&#157;&#180;&#236;&#189;&#152;9">
<rect id="Rectangle 436" width="40" height="40" rx="4" fill="#F6F7FB"/>
<g id="Group 598">
<path id="Vector" d="M30 20H28V30H30V20Z" fill="#77A1CD"/>
<path id="Vector_2" d="M20 20H30C30.5523 20 31 19.5523 31 19C31 18.4477 30.5523 18 30 18H20C19.4477 18 19 18.4477 19 19C19 19.5523 19.4477 20 20 20Z" fill="#77A1CD"/>
<path id="Vector_3" fill-rule="evenodd" clip-rule="evenodd" d="M21 28.2381C20.7764 28.5535 20.5234 28.8461 20.2439 29.1185C19.0525 30.2801 17.405 31 15.5869 31C13.7688 31 12.1214 30.2801 10.9299 29.1185C9.73842 27.957 9 26.3509 9 24.5784C9 22.8059 9.73842 21.1998 10.9299 20.0382C11.3447 19.6338 11.8125 19.2868 12.3243 19L12.7833 20.675C12.5509 20.8356 12.3302 21.0134 12.1302 21.2084C11.2447 22.0717 10.6975 23.262 10.6975 24.5784C10.6975 25.8948 11.2447 27.0851 12.1302 27.9484C13.0127 28.8117 14.2366 29.3451 15.5869 29.3451C16.9372 29.3451 18.1581 28.8117 19.0436 27.9484C19.4673 27.5354 19.8115 27.0507 20.0557 26.5115L20.9971 28.2409L21 28.2381Z" fill="#77A1CD"/>
<path id="Vector_4" fill-rule="evenodd" clip-rule="evenodd" d="M13 15C14.1004 15 15 14.1004 15 13C15 11.8996 14.1004 11 13 11C11.8996 11 11 11.8996 11 13C11 14.1004 11.8996 15 13 15Z" fill="#77A1CD"/>
<path id="Vector_5" d="M21.357 21.9815C21.2105 21.6778 20.902 21.4689 20.5498 21.4689H17.1775L15.7469 16.0516C15.5474 15.2954 14.7807 14.8461 14.0358 15.0486C13.2909 15.2511 12.8484 16.0295 13.0478 16.7858L14.4815 22.2188C14.5626 22.5226 14.7309 22.7758 14.9553 22.9561C15.1205 23.165 15.3729 23.2979 15.6565 23.2979H20.0106L22.4728 28L24 27.0286L21.3601 21.9815H21.357Z" fill="#77A1CD"/>
</g>
</g>
</svg>
