<svg width="40" height="40" viewBox="0 0 40 40" fill="none" xmlns="http://www.w3.org/2000/svg">
<g id="&#236;&#158;&#165;&#236;&#149;&#160;&#236;&#149;&#132;&#236;&#157;&#180;&#236;&#189;&#152;13">
<rect id="Rectangle 441" width="40" height="40" rx="4" fill="#F6F7FB"/>
<g id="Group 605">
<path id="Vector" d="M26.9527 11.013C27.4436 10.8445 27.9857 11.1393 28.1623 11.6708C28.3388 12.2022 28.0836 12.7708 27.5927 12.9394C27.1019 13.1079 25.3208 12.6491 25.3208 12.6491C25.3208 12.6491 26.4626 11.1839 26.9535 11.0154L26.9527 11.013Z" fill="#77A1CD"/>
<path id="Vector_2" d="M24.7009 9.65896C24.8938 9.26294 25.3637 9.10161 25.7509 9.29838C26.1382 9.49516 26.2992 9.97176 26.1055 10.3654C25.9117 10.759 24.64 11.5787 24.64 11.5787C24.64 11.5787 24.5072 10.0526 24.7009 9.65896Z" fill="#77A1CD"/>
<g id="Group 604">
<path id="Vector_3" d="M22.3677 25.6401C22.5666 25.1348 22.8431 24.6649 23.1913 24.2432L24.2725 22.9345C24.3065 22.904 24.3373 22.8701 24.3608 22.8306C24.3623 22.8282 24.3637 22.8258 24.3644 22.8246L25.4597 21.4982C25.8879 20.9807 26.0343 20.315 25.8723 19.6255C25.791 19.2797 25.6372 18.9493 25.4223 18.6502L25.4437 18.6142C25.9677 17.735 25.7026 16.5884 24.8445 15.7745L25.2201 15.3393C25.4738 15.0436 25.5655 14.662 25.4752 14.2633C25.3728 13.8051 25.0479 13.395 24.5839 13.1354C24.1199 12.8758 23.5901 12.8095 23.1301 12.9514C22.7286 13.075 22.432 13.342 22.2959 13.7035L22.0948 14.2363C20.939 13.922 19.7817 14.2728 19.257 15.1533L19.2335 15.1928C18.8601 15.1628 18.4891 15.1997 18.1407 15.3051C17.4421 15.5133 16.9223 15.9716 16.6737 16.5928L15.4369 19.7008C15.2367 20.2054 14.9576 20.6738 14.6075 21.0928L12.448 23.6846C12.0164 24.2019 11.868 24.868 12.0285 25.56C12.2114 26.3475 12.7721 27.0541 13.5666 27.4986L17.243 29.5552C18.0388 30.0004 18.9527 30.1171 19.7495 29.8744C20.4489 29.662 20.9682 29.2017 21.2128 28.5782L22.3657 25.6406L22.3677 25.6401ZM22.2128 15.3102C22.3468 15.3723 22.4994 15.3795 22.6337 15.3316C22.768 15.2837 22.871 15.1848 22.9183 15.058L23.2887 14.0784C23.3323 13.9638 23.4338 13.912 23.5107 13.8863C23.6808 13.8345 23.8953 13.8651 24.0843 13.9708C24.2734 14.0766 24.4086 14.2401 24.4466 14.4099C24.4643 14.4868 24.4673 14.5972 24.3867 14.691L23.6964 15.4916C23.6067 15.5948 23.5711 15.7314 23.5941 15.8673C23.6185 16.0039 23.7019 16.1272 23.8237 16.2097C24.4585 16.6352 24.7722 17.3186 24.6165 17.8639C24.5263 17.8023 24.4326 17.7435 24.3348 17.6888L20.6413 15.6226C20.5408 15.5664 20.4388 15.5157 20.3353 15.4706C20.7449 15.0672 21.5132 14.9875 22.2109 15.3075L22.2128 15.3102Z" fill="#77A1CD"/>
<path id="Vector_4" d="M24.3734 21.7523L22.6979 20.815C22.4293 20.6648 22.0975 20.7344 21.9568 20.9706C21.8161 21.2068 21.9197 21.52 22.1883 21.6703L23.8638 22.6076C24.1323 22.7578 24.4641 22.6881 24.6049 22.452C24.7456 22.2158 24.642 21.9025 24.3734 21.7523Z" fill="white"/>
<path id="Vector_5" d="M23.3542 23.7289L21.6787 22.7916C21.4101 22.6413 21.0783 22.711 20.9376 22.9472C20.7968 23.1833 20.9005 23.4966 21.169 23.6468L22.8446 24.5841C23.1131 24.7344 23.4449 24.6647 23.5856 24.4285C23.7264 24.1924 23.6227 23.8791 23.3542 23.7289Z" fill="white"/>
<path id="Vector_6" d="M22.3349 25.7015L20.6594 24.7642C20.3909 24.614 20.0591 24.6836 19.9183 24.9198C19.7776 25.156 19.8812 25.4692 20.1498 25.6195L21.8253 26.5568C22.0939 26.707 22.4257 26.6374 22.5664 26.4012C22.7071 26.165 22.6035 25.8518 22.3349 25.7015Z" fill="white"/>
</g>
</g>
</g>
</svg>
