<svg width="40" height="40" viewBox="0 0 40 40" fill="none" xmlns="http://www.w3.org/2000/svg">
<g id="&#236;&#158;&#165;&#236;&#149;&#160;&#236;&#149;&#132;&#236;&#157;&#180;&#236;&#189;&#152;10">
<rect id="Rectangle 440" width="40" height="40" rx="4" fill="#F6F7FB"/>
<g id="Group 600">
<path id="Vector" d="M23.0622 33C21.9383 33 20.9804 32.5739 20.1887 31.724C19.3969 30.8741 19 29.8459 19 28.6394C19 27.4329 19.3969 26.4047 20.1887 25.5548C20.9804 24.7049 21.9383 24.2788 23.0622 24.2788V26.0226C22.3848 26.0226 21.811 26.2773 21.3364 26.7845C20.8618 27.294 20.6266 27.91 20.6266 28.6371C20.6266 29.3643 20.8639 29.9802 21.3364 30.4897C21.811 30.9992 22.3848 31.2516 23.0622 31.2516C23.7396 31.2516 24.3135 30.9969 24.7881 30.4897C25.2627 29.9826 25.4978 29.3643 25.4978 28.6371H27.1223C27.1223 29.8436 26.7254 30.8718 25.9336 31.7217C25.1419 32.5716 24.184 32.9977 23.0601 32.9977L23.0622 33ZM30.3712 32.127V27.7687H25.4978C24.9024 27.7687 24.4429 27.4954 24.1172 26.9512C23.7914 26.407 23.7526 25.835 23.9963 25.2399L25.4978 21.6667H23.6512L23.1636 23.0191L21.5996 22.5397L22.1691 20.9696C22.2899 20.6362 22.4905 20.3768 22.7688 20.1962C23.0471 20.0155 23.347 19.9229 23.6728 19.9229H27.8968C28.5051 19.9229 28.969 20.1892 29.2883 20.7195C29.6075 21.2498 29.6442 21.8126 29.4004 22.4077L28.0607 25.5896H30.3755C30.8221 25.5896 31.2039 25.7609 31.5232 26.1013C31.8425 26.4418 32 26.854 32 27.3333V32.127H30.3755H30.3712ZM29.5601 19.4875C29.1135 19.4875 28.7317 19.3162 28.4124 18.9758C28.0931 18.6353 27.9356 18.2231 27.9356 17.7438C27.9356 17.2644 28.0953 16.8545 28.4124 16.5118C28.7295 16.1691 29.1135 16 29.5601 16C30.0066 16 30.3885 16.1714 30.7078 16.5118C31.0271 16.8522 31.1845 17.2644 31.1845 17.7438C31.1845 18.2231 31.0249 18.633 30.7078 18.9758C30.3906 19.3185 30.0066 19.4875 29.5601 19.4875Z" fill="#77A1CD"/>
<g id="Group 599">
<path id="Vector_2" d="M19.2914 9H7.70862C7.31726 9 7 9.31657 7 9.70707V15.2929C7 15.6834 7.31726 16 7.70862 16H19.2914C19.6827 16 20 15.6834 20 15.2929V9.70707C20 9.31657 19.6827 9 19.2914 9Z" fill="#77A1CD"/>
<path id="Vector_3" d="M14.8439 12H7.84393V12.5H14.8439V12Z" fill="white"/>
<path id="Vector_4" d="M14.8439 13H7.84393V13.5H14.8439V13Z" fill="white"/>
<path id="Vector_5" d="M12.8439 10.3906H7.84393V10.8906H12.8439V10.3906Z" fill="white"/>
<path id="Vector_6" d="M18.7408 14.0117C18.5625 13.9588 18.3925 14.0899 18.343 14.3169C18.3066 14.4792 18.3149 14.6495 18.3232 14.8275C18.3265 14.9038 18.3298 14.982 18.3298 15.0584V15.3733C18.3298 15.4888 18.2604 15.5885 18.1647 15.6101C17.9303 15.6609 17.4565 15.8096 17.1956 16.1931L17.2121 16.0405H16.4825V16.0424H15.0231C15.0231 16.0424 15.0066 16.0424 15 16.0424V16.9796C15 17.5117 15.17 18.0145 15.4804 18.3921C15.5844 18.5193 15.6785 18.5995 15.7247 18.6367C15.7544 18.6602 15.7842 18.6836 15.8073 18.7032C15.9674 18.8362 16.5617 19.2393 17.4482 18.801C18.2505 18.4039 18.4156 17.4491 18.4486 17.0559C18.4618 16.9013 18.5047 16.7507 18.5741 16.6196L18.9406 15.927C18.9802 15.8527 19 15.7685 19 15.6805V14.4049C19 14.2288 18.8877 14.0586 18.7441 14.0175L18.7408 14.0117Z" fill="#77A1CD" stroke="white" stroke-width="0.3" stroke-miterlimit="10"/>
</g>
</g>
</g>
</svg>
