<svg width="40" height="40" viewBox="0 0 40 40" fill="none" xmlns="http://www.w3.org/2000/svg">
<g id="&#236;&#158;&#165;&#236;&#149;&#160;&#236;&#149;&#132;&#236;&#157;&#180;&#236;&#189;&#152;1">
<rect id="Rectangle 427" width="40" height="40" rx="4" fill="#F6F7FB"/>
<path id="Vector" d="M17 30C15.6167 30 14.4375 29.5 13.4625 28.5C12.4875 27.5 12 26.2906 12 24.8718C12 23.453 12.4875 22.2436 13.4625 21.2436C14.4375 20.2436 15.6167 19.7436 17 19.7436V21.7949C16.1667 21.7949 15.4583 22.094 14.875 22.6923C14.2917 23.2906 14 24.0171 14 24.8718C14 25.7265 14.2917 26.453 14.875 27.0513C15.4583 27.6496 16.1667 27.9487 17 27.9487C17.8333 27.9487 18.5417 27.6496 19.125 27.0513C19.7083 26.453 20 25.7265 20 24.8718H22C22 26.2906 21.5125 27.5 20.5375 28.5C19.5625 29.5 18.3833 30 17 30ZM26 28.9744V23.8462H20C19.2667 23.8462 18.7 23.5256 18.3 22.8846C17.9 22.2436 17.85 21.5726 18.15 20.8718L20 16.6667H17.725L17.125 18.2564L15.2 17.6923L15.9 15.8462C16.05 15.453 16.2958 15.1496 16.6375 14.9359C16.9792 14.7222 17.35 14.6154 17.75 14.6154H22.95C23.7 14.6154 24.2708 14.9274 24.6625 15.5513C25.0542 16.1752 25.1 16.8376 24.8 17.5385L23.15 21.2821H26C26.55 21.2821 27.0208 21.4829 27.4125 21.8846C27.8042 22.2863 28 22.7692 28 23.3333V28.9744H26ZM25 14.1026C24.45 14.1026 23.9792 13.9017 23.5875 13.5C23.1958 13.0983 23 12.6154 23 12.0513C23 11.4872 23.1958 11.0043 23.5875 10.6026C23.9792 10.2009 24.45 10 25 10C25.55 10 26.0208 10.2009 26.4125 10.6026C26.8042 11.0043 27 11.4872 27 12.0513C27 12.6154 26.8042 13.0983 26.4125 13.5C26.0208 13.9017 25.55 14.1026 25 14.1026Z" fill="#77A1CD"/>
</g>
</svg>
