<svg width="40" height="40" viewBox="0 0 40 40" fill="none" xmlns="http://www.w3.org/2000/svg">
<g id="&#236;&#158;&#165;&#236;&#149;&#160;&#236;&#149;&#132;&#236;&#157;&#180;&#236;&#189;&#152;2">
<rect id="Rectangle 428" width="40" height="40" rx="4" fill="#F6F7FB"/>
<g id="Vector">
<path d="M14.4572 30.8141C14.4572 30.6861 14.4612 30.5957 14.4693 30.5392C14.4774 30.4827 14.5098 30.3773 14.5583 30.2192L17.0789 22.7308C17.0789 22.7308 17.0789 22.6442 17.091 22.5162C17.0991 22.392 17.1072 22.2338 17.1153 22.0531C17.1234 21.8724 17.1315 21.6917 17.1396 21.5185C17.1517 21.3453 17.1558 21.2023 17.1558 21.0931V20.8333C17.1558 20.6902 17.1598 20.5246 17.1679 20.3363C17.176 20.1481 17.18 19.9485 17.18 19.7452V18.8906C17.18 18.7174 17.18 18.5329 17.1679 18.3447C17.1598 18.1527 17.1558 17.9757 17.1558 17.7988V17.4411L16.0351 19.4553L16.5206 22.4899C16.5367 22.599 16.5448 22.6706 16.5448 22.7044C16.5448 22.9567 16.4437 23.1638 16.2374 23.3181C16.0351 23.4763 15.7964 23.5553 15.5253 23.5553C15.3392 23.5553 15.1854 23.5177 15.0681 23.4461C14.9508 23.3746 14.8537 23.2805 14.7849 23.1638C14.7161 23.0471 14.6676 22.9078 14.6352 22.7496C14.6028 22.5915 14.5745 22.4334 14.5583 22.2753C14.5098 22.0569 14.4491 21.7632 14.3924 21.398C14.3358 21.0328 14.2751 20.6789 14.2144 20.3326C14.1537 19.9862 14.1052 19.6812 14.0647 19.4215C14.0202 19.1617 14 19.0224 14 19.0073V18.8417L16.8281 14.0301C16.9656 13.7779 17.176 13.6273 17.4673 13.5783C17.7546 13.5331 18.0256 13.5068 18.2805 13.5068C18.7053 13.5068 19.0492 13.5482 19.3122 13.6235C19.5752 13.7026 19.8341 13.9021 20.089 14.2184L25.6925 20.5697C25.8301 20.6978 25.911 20.8145 25.9474 20.9274C25.9798 21.0366 26 21.1797 26 21.3528C26 21.6202 25.9231 21.8385 25.7694 22.0042C25.6156 22.1698 25.3972 22.2527 25.1059 22.2527C24.7498 22.2527 24.4423 22.1247 24.1915 21.8724L18.944 16.1385C18.944 16.0745 18.9198 16.0443 18.8672 16.0443L18.8146 16.0217L18.766 16.0443C18.7175 16.0443 18.6891 16.0745 18.6891 16.1385C18.7215 16.2326 18.7498 16.2891 18.766 16.3041L20.3439 18.0586V22.6819L17.087 31.2131C16.9697 31.4955 16.7957 31.6988 16.5772 31.8193C16.3587 31.936 16.0755 31.9962 15.7357 31.9962C15.3958 31.9962 15.0762 31.8795 14.8334 31.6423C14.5866 31.4051 14.4653 31.1303 14.4653 30.8141H14.4572ZM19.2717 26.4995L20.4693 23.3482H20.5462L23.4754 30.0535C23.5603 30.2757 23.6089 30.4187 23.6291 30.494C23.6453 30.5656 23.6534 30.6898 23.6534 30.8592C23.6534 31.2244 23.5078 31.5068 23.2205 31.7026C22.9332 31.8984 22.6096 32 22.2535 32C21.6426 32 21.2259 31.7063 21.0034 31.1228L19.2717 26.5032V26.4995Z" fill="#77A1CD"/>
<path d="M16.6786 11.9986C17.1231 12.4575 17.6574 12.687 18.2816 12.687C18.9058 12.687 19.4401 12.4575 19.8846 11.9986C20.3291 11.5397 20.5513 10.988 20.5513 10.3435C20.5513 9.69904 20.3291 9.14734 19.8846 8.68841C19.4401 8.22947 18.9058 8 18.2816 8C17.6574 8 17.1231 8.22947 16.6786 8.68841C16.2341 9.14734 16.0119 9.69904 16.0119 10.3435C16.0119 10.988 16.2341 11.5397 16.6786 11.9986Z" fill="#77A1CD"/>
</g>
</g>
</svg>
