<svg width="40" height="40" viewBox="0 0 40 40" fill="none" xmlns="http://www.w3.org/2000/svg">
<g id="&#236;&#158;&#165;&#236;&#149;&#160;&#236;&#149;&#132;&#236;&#157;&#180;&#236;&#189;&#152;5">
<rect id="Rectangle 431" width="40" height="40" rx="4" fill="#F6F7FB"/>
<g id="Group 594">
<path id="Vector" d="M14.1106 28.2886C12.9975 28.4451 11.9966 28.207 11.1077 27.5746C10.2189 26.9421 9.70041 26.099 9.55232 25.0453C9.40422 23.9916 9.67022 23.0382 10.3503 22.1852C11.0304 21.3323 11.927 20.8276 13.04 20.6712L13.2541 22.1947C12.5836 22.2889 12.0449 22.5912 11.638 23.1015C11.2311 23.6118 11.0723 24.1844 11.1615 24.8191C11.2507 25.4539 11.5612 25.9605 12.093 26.3389C12.6248 26.7173 13.226 26.8594 13.8964 26.7651C14.5669 26.6709 15.1056 26.3686 15.5125 25.8583C15.9194 25.348 16.0783 24.7755 15.9891 24.1407L17.5982 23.9145C17.7463 24.9683 17.4803 25.9216 16.8002 26.7746C16.1201 27.6275 15.2236 28.1322 14.1106 28.2886ZM21.2448 26.5092L20.7096 22.7005L15.882 23.3789C15.292 23.4619 14.8026 23.2879 14.4138 22.857C14.0251 22.4262 13.9148 21.9335 14.083 21.3791L15.1326 18.0467L13.3022 18.304L12.9853 19.5525L11.3776 19.3512L11.7481 17.9009C11.8278 17.592 11.9939 17.3388 12.2465 17.1415C12.4991 16.9442 12.7863 16.8229 13.1082 16.7777L17.292 16.1896C17.8955 16.1048 18.3873 16.272 18.7676 16.6911C19.1479 17.1102 19.2539 17.597 19.0857 18.1514L18.1488 21.1184L20.4419 20.7961C20.8844 20.7339 21.2842 20.8298 21.6413 21.0839C21.9984 21.338 22.2063 21.6745 22.2652 22.0934L22.854 26.283L21.2448 26.5092ZM18.8879 15.577C18.4454 15.6392 18.0456 15.5432 17.6885 15.2892C17.3315 15.0351 17.1235 14.6986 17.0646 14.2796C17.0058 13.8607 17.1129 13.4799 17.3861 13.1372C17.6593 12.7946 18.0172 12.5922 18.4597 12.53C18.9022 12.4678 19.302 12.5637 19.6591 12.8178C20.0162 13.0718 20.2241 13.4084 20.283 13.8273C20.3419 14.2463 20.2347 14.6271 19.9615 14.9697C19.6883 15.3124 19.3305 15.5148 18.8879 15.577Z" fill="#77A1CD"/>
<path id="Rectangle 367" d="M31 25V32H10L31 25Z" fill="#77A1CD"/>
</g>
</g>
</svg>
