<svg width="40" height="40" viewBox="0 0 40 40" fill="none" xmlns="http://www.w3.org/2000/svg">
<g id="&#236;&#158;&#165;&#236;&#149;&#160;&#236;&#149;&#132;&#236;&#157;&#180;&#236;&#189;&#152;11">
<rect id="Rectangle 439" width="40" height="40" rx="4" fill="#F6F7FB"/>
<g id="Group 601">
<path id="Vector" d="M23.0622 33C21.9383 33 20.9804 32.5739 20.1887 31.724C19.3969 30.8741 19 29.8459 19 28.6394C19 27.4329 19.3969 26.4047 20.1887 25.5548C20.9804 24.7049 21.9383 24.2788 23.0622 24.2788V26.0226C22.3848 26.0226 21.811 26.2773 21.3364 26.7845C20.8618 27.294 20.6266 27.91 20.6266 28.6371C20.6266 29.3643 20.8639 29.9802 21.3364 30.4897C21.811 30.9992 22.3848 31.2516 23.0622 31.2516C23.7396 31.2516 24.3135 30.9969 24.7881 30.4897C25.2627 29.9826 25.4978 29.3643 25.4978 28.6371H27.1223C27.1223 29.8436 26.7254 30.8718 25.9336 31.7217C25.1419 32.5716 24.184 32.9977 23.0601 32.9977L23.0622 33ZM30.3712 32.127V27.7687H25.4978C24.9024 27.7687 24.4429 27.4954 24.1172 26.9512C23.7914 26.407 23.7526 25.835 23.9963 25.2399L25.4978 21.6667H23.6512L23.1636 23.0191L21.5996 22.5397L22.1691 20.9696C22.2899 20.6362 22.4905 20.3768 22.7688 20.1962C23.0471 20.0155 23.347 19.9229 23.6728 19.9229H27.8968C28.5051 19.9229 28.969 20.1892 29.2883 20.7195C29.6075 21.2498 29.6442 21.8126 29.4004 22.4077L28.0607 25.5896H30.3755C30.8221 25.5896 31.2039 25.7609 31.5232 26.1013C31.8425 26.4418 32 26.854 32 27.3333V32.127H30.3755H30.3712ZM29.5601 19.4875C29.1135 19.4875 28.7317 19.3162 28.4124 18.9758C28.0931 18.6353 27.9356 18.2231 27.9356 17.7438C27.9356 17.2644 28.0953 16.8545 28.4124 16.5118C28.7295 16.1691 29.1135 16 29.5601 16C30.0066 16 30.3885 16.1714 30.7078 16.5118C31.0271 16.8522 31.1845 17.2644 31.1845 17.7438C31.1845 18.2231 31.0249 18.633 30.7078 18.9758C30.3906 19.3185 30.0066 19.4875 29.5601 19.4875Z" fill="#77A1CD"/>
<path id="Vector_2" d="M16.9187 20.5076L16.382 19.9629C16.382 19.9629 16.3723 19.9438 16.365 19.9367C16.3505 19.9224 16.3385 19.9081 16.3167 19.8962L15.4584 19.0232C15.4439 19.0066 15.4294 18.9899 15.4125 18.9757L14.7622 18.3144C15.9661 18.1479 16.3119 17.6412 16.3119 16.2686C16.3119 14.4584 16.1837 12.4626 15.9734 11.0234C15.734 9.37969 15.1659 8 13.4953 8H10.6618C8.98883 8.00238 8.42069 9.38207 8.18134 11.0258C7.97342 12.4673 7.84287 14.4607 7.84287 16.271C7.84287 17.5912 8.16442 18.1098 9.25961 18.2953L8.5875 18.978C8.57058 18.9923 8.55607 19.0066 8.54157 19.0232L7.68331 19.8962C7.66397 19.9081 7.64946 19.9224 7.63495 19.9367C7.6277 19.9438 7.62528 19.9557 7.61803 19.9629L7.08373 20.5076C6.9701 20.6218 6.97252 20.8049 7.08857 20.9167C7.14659 20.9715 7.21912 21 7.29165 21C7.36418 21 7.44396 20.9715 7.49957 20.912L7.98551 20.4172C8.4497 20.4029 10.362 20.4124 11.7812 20.4243C11.7885 20.4243 11.7933 20.4291 11.8005 20.4291H11.803C11.8658 20.4291 11.9335 20.4291 11.9988 20.4291C12.0665 20.4291 12.1342 20.4291 12.197 20.4291H12.1995C12.1995 20.4291 12.2115 20.4267 12.2188 20.4243C13.6379 20.4124 15.5503 20.4029 16.0145 20.4172L16.5004 20.912C16.5585 20.9691 16.6334 21 16.7084 21C16.7833 21 16.8558 20.9715 16.9114 20.9167C17.0275 20.8049 17.0299 20.6218 16.9163 20.5076H16.9187ZM12.0786 16.2567C12.3929 16.252 12.9441 16.2353 13.5509 16.1877V17.0512C13.1665 17.0703 12.6878 17.0845 12.0786 17.0941C11.4693 17.0845 10.9906 17.0726 10.6062 17.0512V16.1877C11.2131 16.2353 11.7643 16.252 12.0786 16.2567ZM14.9822 16.5874C14.9822 16.6992 14.9169 16.8038 14.8129 16.849C14.6219 16.9347 14.3512 16.987 13.9402 17.0227V16.1521C14.1747 16.1283 14.414 16.0997 14.6437 16.0664C14.8226 16.0403 14.9822 16.1735 14.9822 16.3519V16.5874ZM8.59717 14.1682C8.59717 12.4721 8.68663 9.47008 9.79149 9.3226C10.6884 9.20366 11.6289 9.17987 12.0786 9.17511C12.5283 9.17987 13.4687 9.20128 14.3657 9.3226C15.4705 9.47008 15.56 12.4745 15.56 14.1682C15.56 15.3956 12.9078 15.4789 12.1124 15.4789C12.1003 15.4789 12.0882 15.4789 12.0786 15.4789C12.0665 15.4789 12.0568 15.4789 12.0447 15.4789C11.2493 15.4789 8.59717 15.3956 8.59717 14.1682ZM9.17257 16.3519C9.17257 16.1735 9.33214 16.0403 9.51104 16.0664C9.74072 16.1021 9.97765 16.1283 10.2146 16.1521V17.0227C9.80358 16.987 9.5328 16.9347 9.34181 16.849C9.23785 16.8015 9.17257 16.6992 9.17257 16.5874V16.3519ZM10.8311 18.2977H13.3237C13.5703 18.2977 13.7927 18.293 14.003 18.2858L14.5301 18.8163H9.47236L10.0042 18.2811C10.2533 18.293 10.5289 18.2977 10.8335 18.2977H10.8311ZM12.0012 19.744C10.2122 19.7274 9.17499 19.7202 8.56816 19.725L8.89938 19.3896H15.1006L15.4343 19.725C14.8274 19.7202 13.7903 19.725 12.0012 19.744Z" fill="#77A1CD"/>
<path id="Vector_3" d="M11.9977 15H12.0328C13.5106 15 15 14.7401 15 14.1624C15 10.5155 14.3643 10.1546 14.1673 10.1289C13.3393 10.0258 12.455 10.0043 12 10C11.545 10.0043 10.6607 10.0258 9.83268 10.1289C9.638 10.1525 9 10.5155 9 14.1624C9 14.7401 10.4894 15 11.9672 15H12H11.9977Z" fill="#77A1CD"/>
</g>
</g>
</svg>
