<svg width="40" height="40" viewBox="0 0 40 40" fill="none" xmlns="http://www.w3.org/2000/svg">
<g id="&#236;&#158;&#165;&#236;&#149;&#160;&#236;&#149;&#132;&#236;&#157;&#180;&#236;&#189;&#152;12">
<rect id="Rectangle 442" width="40" height="40" rx="4" fill="#F6F7FB"/>
<g id="Group 603">
<path id="Vector" d="M23.0622 33C21.9383 33 20.9804 32.5739 20.1887 31.724C19.3969 30.8741 19 29.8459 19 28.6394C19 27.4329 19.3969 26.4047 20.1887 25.5548C20.9804 24.7049 21.9383 24.2788 23.0622 24.2788V26.0226C22.3848 26.0226 21.811 26.2773 21.3364 26.7845C20.8618 27.294 20.6266 27.91 20.6266 28.6371C20.6266 29.3643 20.8639 29.9802 21.3364 30.4897C21.811 30.9992 22.3848 31.2516 23.0622 31.2516C23.7396 31.2516 24.3135 30.9969 24.7881 30.4897C25.2627 29.9826 25.4978 29.3643 25.4978 28.6371H27.1223C27.1223 29.8436 26.7254 30.8718 25.9336 31.7217C25.1419 32.5716 24.184 32.9977 23.0601 32.9977L23.0622 33ZM30.3712 32.127V27.7687H25.4978C24.9024 27.7687 24.4429 27.4954 24.1172 26.9512C23.7914 26.407 23.7526 25.835 23.9963 25.2399L25.4978 21.6667H23.6512L23.1636 23.0191L21.5996 22.5397L22.1691 20.9696C22.2899 20.6362 22.4905 20.3768 22.7688 20.1962C23.0471 20.0155 23.347 19.9229 23.6728 19.9229H27.8968C28.5051 19.9229 28.969 20.1892 29.2883 20.7195C29.6075 21.2498 29.6442 21.8126 29.4004 22.4077L28.0607 25.5896H30.3755C30.8221 25.5896 31.2039 25.7609 31.5232 26.1013C31.8425 26.4418 32 26.854 32 27.3333V32.127H30.3755H30.3712ZM29.5601 19.4875C29.1135 19.4875 28.7317 19.3162 28.4124 18.9758C28.0931 18.6353 27.9356 18.2231 27.9356 17.7438C27.9356 17.2644 28.0953 16.8545 28.4124 16.5118C28.7295 16.1691 29.1135 16 29.5601 16C30.0066 16 30.3885 16.1714 30.7078 16.5118C31.0271 16.8522 31.1845 17.2644 31.1845 17.7438C31.1845 18.2231 31.0249 18.633 30.7078 18.9758C30.3906 19.3185 30.0066 19.4875 29.5601 19.4875Z" fill="#77A1CD"/>
<g id="Group 602">
<path id="Vector_2" d="M18.6414 11.9819V11.6508C18.6414 11.3239 18.3554 11.0565 18.0059 11.0565H17.3068C17.1139 10.2861 16.3785 9.70886 15.4978 9.70886H14.3108V9H11.6892V9.70886H10.5181C9.63741 9.70886 8.89975 10.2861 8.7091 11.0565H7.99414C7.6446 11.0565 7.35862 11.3239 7.35862 11.6508V11.9819C7.15434 12.037 7 12.2068 7 12.4148V13.58C7 13.8325 7.22016 14.0384 7.49026 14.0384H7.67638C7.94647 14.0384 8.16664 13.8325 8.16664 13.58V12.4148C8.16664 12.1814 7.97825 11.9967 7.73766 11.9691V11.6508C7.73766 11.5192 7.85341 11.411 7.99414 11.411H8.66143C8.66143 11.4237 8.65689 11.4364 8.65689 11.4513V19.5501C8.65689 19.7984 8.87252 20 9.13807 20H10.1958C10.4613 20 10.6747 19.7984 10.6747 19.5501V18.82H15.3367V19.5501C15.3367 19.7984 15.5523 20 15.8156 20H16.8733C17.1388 20 17.3545 19.7984 17.3545 19.5501V17.1136C17.3545 17.1009 17.359 17.0903 17.359 17.0797V11.4513C17.359 11.4385 17.3545 11.4258 17.3545 11.411H18.0059C18.1466 11.411 18.2623 11.5192 18.2623 11.6508V11.9691C18.0218 11.9988 17.8334 12.1835 17.8334 12.4148V13.58C17.8334 13.8325 18.0535 14.0384 18.3236 14.0384H18.5097C18.7798 14.0384 19 13.8325 19 13.58V12.4148C19 12.2068 18.8479 12.037 18.6414 11.9819ZM11.1127 17.9435C11.1127 18.0878 10.972 18.196 10.8199 18.1642C10.3274 18.0623 9.36732 17.8565 9.20844 17.7694C8.99281 17.6485 8.99281 17.0606 8.99281 17.0606L10.9289 17.5126C11.0356 17.5381 11.1127 17.6272 11.1127 17.7312V17.9435ZM9.56251 15.6323V11.2115C9.56251 10.8019 9.91886 10.4665 10.3569 10.4665H15.6363C16.0743 10.4665 16.4329 10.7997 16.4329 11.2115V15.6323C16.4329 16.4748 14.8782 16.5427 12.9966 16.5427C11.115 16.5427 9.56024 16.4748 9.56024 15.6323H9.56251ZM16.787 17.7694C16.6281 17.8586 15.6703 18.0644 15.1755 18.1642C15.0257 18.196 14.8827 18.0878 14.8827 17.9435V17.7312C14.8827 17.6272 14.9576 17.5381 15.0666 17.5126L17.0026 17.0606C17.0026 17.0606 17.0026 17.6485 16.787 17.7694Z" fill="#77A1CD"/>
<path id="Vector_3" d="M15.5902 11H10.4098C10.1849 11 10 11.1621 10 11.3636V15.4802C10 16 11.951 16 13 16C14.049 16 16 16 16 15.4802V11.3636C16 11.164 15.8174 11 15.5902 11Z" fill="#77A1CD"/>
</g>
</g>
</g>
</svg>
