<svg width="54" height="54" viewBox="0 0 54 54" fill="none" xmlns="http://www.w3.org/2000/svg">
<mask id="mask0_405_1204" style="mask-type:alpha" maskUnits="userSpaceOnUse" x="0" y="0" width="54" height="54">
<circle cx="27" cy="27" r="27" fill="white"/>
</mask>
<g mask="url(#mask0_405_1204)">
<path d="M29.6827 0.132357V29.0828H0.073448C0.0213976 28.3972 -0.00537109 27.7042 -0.00537109 27.0052C-0.00537109 24.657 0.295034 22.3787 0.858665 20.2074L0.678719 20.0766H0.892869C1.30778 18.5032 1.86249 16.9877 2.54212 15.5407C2.59268 15.4337 2.64473 15.3251 2.69679 15.218C2.74884 15.1095 2.80237 15.0024 2.8574 14.8953C2.9496 14.7094 3.04478 14.5265 3.14144 14.3436C3.16821 14.2915 3.19647 14.2395 3.22472 14.1874C3.7482 13.2208 4.32819 12.2883 4.96172 11.396L4.75203 11.2429H5.07028C8.36432 6.6669 13.0563 3.16317 18.5216 1.35777C18.532 1.3548 18.5424 1.35033 18.5528 1.34736C18.5602 1.34439 18.5692 1.34141 18.5781 1.33992C21.2282 0.46994 24.0597 0 26.9998 0C27.9055 0 28.7993 0.0446146 29.6827 0.132357Z" fill="#123C9E"/>
<path d="M19.1578 3.11067L19.5295 4.25726L18.554 3.54789L17.5784 4.25726L17.9502 3.11067L16.9746 2.40129H18.1807L18.5227 1.34988C18.5331 1.3469 18.5436 1.34244 18.554 1.33947C18.5614 1.33649 18.5703 1.33352 18.5792 1.33203L18.9272 2.40129H20.1333L19.1578 3.11067Z" fill="#F9F9F9"/>
<path d="M18.5544 1.33594V2.75171L18.1812 2.39776L18.5232 1.34635C18.5336 1.34337 18.544 1.33891 18.5544 1.33594Z" fill="#F9F9F9"/>
<path d="M18.554 2.75629L17.9502 3.11172L16.9746 2.40234L18.554 2.75629Z" fill="#F9F9F9"/>
<path d="M18.5552 2.75629L18.9285 2.40234H20.1345L18.5552 2.75629Z" fill="#F9F9F9"/>
<path d="M18.554 2.75629L16.9746 2.40234H18.1807L18.554 2.75629Z" fill="#F9F9F9"/>
<path d="M18.5542 2.75391L17.5786 4.25593L18.5542 3.54656V2.75391Z" fill="#F9F9F9"/>
<path d="M20.1345 2.40234L18.5552 2.75629L19.159 3.11172L20.1345 2.40234Z" fill="#F9F9F9"/>
<path d="M18.5552 2.75391L19.5307 4.25593L18.5552 3.54656V2.75391Z" fill="#F9F9F9"/>
<path d="M26.7014 1.24609L27.0732 2.39418H28.2808L27.3037 3.10355L27.677 4.25014L26.7014 3.54077L25.7244 4.25014L26.0977 3.10355L25.1206 2.39418H26.3282L26.7014 1.24609Z" fill="#F9F9F9"/>
<path d="M26.7024 2.74812L26.3291 2.39418L26.7024 1.24609V2.74812Z" fill="#F9F9F9"/>
<path d="M26.7014 2.74847L26.0977 3.1039L25.1206 2.39453L26.7014 2.74847Z" fill="#F9F9F9"/>
<path d="M26.7012 2.74847L27.073 2.39453H28.2805L26.7012 2.74847Z" fill="#F9F9F9"/>
<path d="M26.7014 2.74847L25.1206 2.39453H26.3282L26.7014 2.74847Z" fill="#F9F9F9"/>
<path d="M26.7017 2.75L25.7246 4.25202L26.7017 3.54265V2.75Z" fill="#F9F9F9"/>
<path d="M28.2805 2.39453L26.7012 2.74847L27.3035 3.1039L28.2805 2.39453Z" fill="#F9F9F9"/>
<path d="M26.7012 2.75L27.6767 4.25202L26.7012 3.54265V2.75Z" fill="#F9F9F9"/>
<path d="M10.4041 7.14062L10.7773 8.28871H11.9834L11.0078 8.99808L11.3811 10.1447L10.4041 9.4353L9.42849 10.1447L9.80177 8.99808L8.82471 8.28871H10.0323L10.4041 7.14062Z" fill="#F9F9F9"/>
<path d="M10.405 8.64265L10.0332 8.28871L10.405 7.14062V8.64265Z" fill="#F9F9F9"/>
<path d="M10.4041 8.643L9.80177 8.99843L8.82471 8.28906L10.4041 8.643Z" fill="#F9F9F9"/>
<path d="M10.4053 8.643L10.7785 8.28906H11.9846L10.4053 8.643Z" fill="#F9F9F9"/>
<path d="M10.4041 8.643L8.82471 8.28906H10.0323L10.4041 8.643Z" fill="#F9F9F9"/>
<path d="M10.4043 8.64453L9.42871 10.1466L10.4043 9.43718V8.64453Z" fill="#F9F9F9"/>
<path d="M11.9846 8.28906L10.4053 8.643L11.0091 8.99843L11.9846 8.28906Z" fill="#F9F9F9"/>
<path d="M10.4053 8.64453L11.3823 10.1466L10.4053 9.43718V8.64453Z" fill="#F9F9F9"/>
<path d="M18.552 7.14062L18.9253 8.28871H20.1314L19.1558 8.99808L19.5276 10.1447L18.552 9.4353L17.5764 10.1447L17.9482 8.99808L16.9727 8.28871H18.1787L18.552 7.14062Z" fill="#F9F9F9"/>
<path d="M18.5525 8.64265L18.1792 8.28871L18.5525 7.14062V8.64265Z" fill="#F9F9F9"/>
<path d="M18.552 8.643L17.9482 8.99843L16.9727 8.28906L18.552 8.643Z" fill="#F9F9F9"/>
<path d="M18.5532 8.643L18.9265 8.28906H20.1326L18.5532 8.643Z" fill="#F9F9F9"/>
<path d="M18.552 8.643L16.9727 8.28906H18.1787L18.552 8.643Z" fill="#F9F9F9"/>
<path d="M18.5522 8.64453L17.5767 10.1466L18.5522 9.43718V8.64453Z" fill="#F9F9F9"/>
<path d="M20.1326 8.28906L18.5532 8.643L19.157 8.99843L20.1326 8.28906Z" fill="#F9F9F9"/>
<path d="M18.5532 8.64453L19.5288 10.1466L18.5532 9.43718V8.64453Z" fill="#F9F9F9"/>
<path d="M26.6995 7.14062L27.0713 8.28871H28.2789L27.3018 8.99808L27.6751 10.1447L26.6995 9.4353L25.7224 10.1447L26.0957 8.99808L25.1187 8.28871H26.3262L26.6995 7.14062Z" fill="#F9F9F9"/>
<path d="M26.7004 8.64265L26.3271 8.28871L26.7004 7.14062V8.64265Z" fill="#F9F9F9"/>
<path d="M26.6995 8.643L26.0957 8.99843L25.1187 8.28906L26.6995 8.643Z" fill="#F9F9F9"/>
<path d="M26.6992 8.643L27.071 8.28906H28.2786L26.6992 8.643Z" fill="#F9F9F9"/>
<path d="M26.6995 8.643L25.1187 8.28906H26.3262L26.6995 8.643Z" fill="#F9F9F9"/>
<path d="M26.6997 8.64453L25.7227 10.1466L26.6997 9.43718V8.64453Z" fill="#F9F9F9"/>
<path d="M28.2786 8.28906L26.6992 8.643L27.3015 8.99843L28.2786 8.28906Z" fill="#F9F9F9"/>
<path d="M26.6992 8.64453L27.6748 10.1466L26.6992 9.43718V8.64453Z" fill="#F9F9F9"/>
<path d="M2.86171 14.8891L3.23498 16.0357L2.54346 15.533C2.59402 15.4259 2.64607 15.3174 2.69812 15.2103C2.75017 15.1017 2.80371 14.9946 2.85873 14.8876C2.95094 14.7017 3.04611 14.5188 3.14278 14.3358C3.16955 14.2838 3.1978 14.2317 3.22606 14.1797H3.83877L2.86171 14.8891Z" fill="#F9F9F9"/>
<path d="M3.84003 14.1797L3.14404 14.3358C3.17081 14.2838 3.19907 14.2317 3.22732 14.1797H3.84003Z" fill="#F9F9F9"/>
<path d="M3.83794 14.1797L2.86088 14.8891H2.85791C2.95011 14.7017 3.04529 14.5188 3.14196 14.3358L3.83794 14.1797Z" fill="#F9F9F9"/>
<path d="M3.23498 16.0402L2.54346 15.5376C2.59402 15.4305 2.64607 15.3219 2.69812 15.2148L3.23498 16.0402Z" fill="#F9F9F9"/>
<path d="M10.4065 13.0352L10.7798 14.1832H11.9859L11.0103 14.8926L11.3836 16.0392L10.4065 15.3298L9.43093 16.0392L9.80421 14.8926L8.82715 14.1832H10.0347L10.4065 13.0352Z" fill="#F9F9F9"/>
<path d="M10.4074 14.5372L10.0356 14.1832L10.4074 13.0352V14.5372Z" fill="#F9F9F9"/>
<path d="M10.4065 14.5375L9.80421 14.893L8.82715 14.1836L10.4065 14.5375Z" fill="#F9F9F9"/>
<path d="M10.4077 14.5375L10.781 14.1836H11.9871L10.4077 14.5375Z" fill="#F9F9F9"/>
<path d="M10.4065 14.5375L8.82715 14.1836H10.0347L10.4065 14.5375Z" fill="#F9F9F9"/>
<path d="M10.4067 14.5391L9.43115 16.0411L10.4067 15.3317V14.5391Z" fill="#F9F9F9"/>
<path d="M11.9871 14.1836L10.4077 14.5375L11.0115 14.893L11.9871 14.1836Z" fill="#F9F9F9"/>
<path d="M10.4077 14.5391L11.3848 16.0411L10.4077 15.3317V14.5391Z" fill="#F9F9F9"/>
<path d="M18.5545 13.0352L18.9277 14.1832H20.1338L19.1582 14.8926L19.53 16.0392L18.5545 15.3298L17.5789 16.0392L17.9507 14.8926L16.9751 14.1832H18.1812L18.5545 13.0352Z" fill="#F9F9F9"/>
<path d="M18.5549 14.5372L18.1816 14.1832L18.5549 13.0352V14.5372Z" fill="#F9F9F9"/>
<path d="M18.5545 14.5375L17.9507 14.893L16.9751 14.1836L18.5545 14.5375Z" fill="#F9F9F9"/>
<path d="M18.5557 14.5375L18.9289 14.1836H20.135L18.5557 14.5375Z" fill="#F9F9F9"/>
<path d="M18.5545 14.5375L16.9751 14.1836H18.1812L18.5545 14.5375Z" fill="#F9F9F9"/>
<path d="M18.5547 14.5391L17.5791 16.0411L18.5547 15.3317V14.5391Z" fill="#F9F9F9"/>
<path d="M20.135 14.1836L18.5557 14.5375L19.1594 14.893L20.135 14.1836Z" fill="#F9F9F9"/>
<path d="M18.5557 14.5391L19.5312 16.0411L18.5557 15.3317V14.5391Z" fill="#F9F9F9"/>
<path d="M26.7014 13.0352L27.0732 14.1832H28.2808L27.3037 14.8926L27.677 16.0392L26.7014 15.3298L25.7244 16.0392L26.0977 14.8926L25.1206 14.1832H26.3282L26.7014 13.0352Z" fill="#F9F9F9"/>
<path d="M26.7024 14.5372L26.3291 14.1832L26.7024 13.0352V14.5372Z" fill="#F9F9F9"/>
<path d="M26.7014 14.5375L26.0977 14.893L25.1206 14.1836L26.7014 14.5375Z" fill="#F9F9F9"/>
<path d="M26.7012 14.5375L27.073 14.1836H28.2805L26.7012 14.5375Z" fill="#F9F9F9"/>
<path d="M26.7014 14.5375L25.1206 14.1836H26.3282L26.7014 14.5375Z" fill="#F9F9F9"/>
<path d="M26.7017 14.5391L25.7246 16.0411L26.7017 15.3317V14.5391Z" fill="#F9F9F9"/>
<path d="M28.2805 14.1836L26.7012 14.5375L27.3035 14.893L28.2805 14.1836Z" fill="#F9F9F9"/>
<path d="M26.7012 14.5391L27.6767 16.0411L26.7012 15.3317V14.5391Z" fill="#F9F9F9"/>
<path d="M2.8589 20.7871L3.23217 21.9337L2.2566 21.2244L1.27954 21.9337L1.65282 20.7871L0.857192 20.2086L0.677246 20.0778H1.88333L2.2566 18.9297L2.62839 20.0778H3.83596L2.8589 20.7871Z" fill="#F9F9F9"/>
<path d="M2.25706 20.4317L1.88379 20.0778L2.25706 18.9297V20.4317Z" fill="#F9F9F9"/>
<path d="M2.2566 20.4321L1.65282 20.7875L0.857192 20.209L0.677246 20.0781L0.879499 20.1227L2.2566 20.4321Z" fill="#F9F9F9"/>
<path d="M2.25781 20.4321L2.6296 20.0781H3.83717L2.25781 20.4321Z" fill="#F9F9F9"/>
<path d="M2.2566 20.4321L0.879499 20.1227L0.677246 20.0781H1.88333L2.2566 20.4321Z" fill="#F9F9F9"/>
<path d="M2.25636 20.4336L1.2793 21.9356L2.25636 21.2262V20.4336Z" fill="#F9F9F9"/>
<path d="M3.83717 20.0781L2.25781 20.4321L2.86011 20.786L3.83717 20.0781Z" fill="#F9F9F9"/>
<path d="M2.25781 20.4336L3.23338 21.9356L2.25781 21.2262V20.4336Z" fill="#F9F9F9"/>
<path d="M10.4041 18.9297L10.7773 20.0778H11.9834L11.0078 20.7857L11.3811 21.9337L10.4041 21.2244L9.42849 21.9337L9.80177 20.7857L8.82471 20.0778H10.0323L10.4041 18.9297Z" fill="#F9F9F9"/>
<path d="M10.405 20.4317L10.0332 20.0778L10.405 18.9297V20.4317Z" fill="#F9F9F9"/>
<path d="M10.4041 20.4321L9.80177 20.786L8.82471 20.0781L10.4041 20.4321Z" fill="#F9F9F9"/>
<path d="M10.4053 20.4321L10.7785 20.0781H11.9846L10.4053 20.4321Z" fill="#F9F9F9"/>
<path d="M10.4041 20.4321L8.82471 20.0781H10.0323L10.4041 20.4321Z" fill="#F9F9F9"/>
<path d="M10.4043 20.4336L9.42871 21.9356L10.4043 21.2262V20.4336Z" fill="#F9F9F9"/>
<path d="M11.9846 20.0781L10.4053 20.4321L11.0091 20.786L11.9846 20.0781Z" fill="#F9F9F9"/>
<path d="M10.4053 20.4336L11.3823 21.9356L10.4053 21.2262V20.4336Z" fill="#F9F9F9"/>
<path d="M18.5525 18.9297L18.9258 20.0778H20.1319L19.1563 20.7857L19.5281 21.9337L18.5525 21.2244L17.5769 21.9337L17.9487 20.7857L16.9731 20.0778H18.1792L18.5525 18.9297Z" fill="#F9F9F9"/>
<path d="M18.553 20.4317L18.1797 20.0778L18.553 18.9297V20.4317Z" fill="#F9F9F9"/>
<path d="M18.5525 20.4321L17.9487 20.786L16.9731 20.0781L18.5525 20.4321Z" fill="#F9F9F9"/>
<path d="M18.5537 20.4321L18.927 20.0781H20.1331L18.5537 20.4321Z" fill="#F9F9F9"/>
<path d="M18.5525 20.4321L16.9731 20.0781H18.1792L18.5525 20.4321Z" fill="#F9F9F9"/>
<path d="M18.5527 20.4336L17.5771 21.9356L18.5527 21.2262V20.4336Z" fill="#F9F9F9"/>
<path d="M20.1331 20.0781L18.5537 20.4321L19.1575 20.786L20.1331 20.0781Z" fill="#F9F9F9"/>
<path d="M18.5537 20.4336L19.5293 21.9356L18.5537 21.2262V20.4336Z" fill="#F9F9F9"/>
<path d="M26.7 18.9297L27.0718 20.0778H28.2793L27.3023 20.7857L27.6756 21.9337L26.7 21.2244L25.7229 21.9337L26.0962 20.7857L25.1191 20.0778H26.3267L26.7 18.9297Z" fill="#F9F9F9"/>
<path d="M26.7009 20.4317L26.3276 20.0778L26.7009 18.9297V20.4317Z" fill="#F9F9F9"/>
<path d="M26.7 20.4321L26.0962 20.786L25.1191 20.0781L26.7 20.4321Z" fill="#F9F9F9"/>
<path d="M26.6997 20.4321L27.0715 20.0781H28.2791L26.6997 20.4321Z" fill="#F9F9F9"/>
<path d="M26.7 20.4321L25.1191 20.0781H26.3267L26.7 20.4321Z" fill="#F9F9F9"/>
<path d="M26.7002 20.4336L25.7231 21.9356L26.7002 21.2262V20.4336Z" fill="#F9F9F9"/>
<path d="M28.2791 20.0781L26.6997 20.4321L27.302 20.786L28.2791 20.0781Z" fill="#F9F9F9"/>
<path d="M26.6997 20.4336L27.6753 21.9356L26.6997 21.2262V20.4336Z" fill="#F9F9F9"/>
<path d="M2.2566 24.8203L2.62839 25.9684H3.83596L2.8589 26.6763L3.23217 27.8244L2.2566 27.115L1.27954 27.8244L1.65282 26.6763L0.677246 25.9684H1.88333L2.2566 24.8203Z" fill="#F9F9F9"/>
<path d="M2.25706 26.3223L1.88379 25.9684L2.25706 24.8203V26.3223Z" fill="#F9F9F9"/>
<path d="M2.2566 26.3227L1.65282 26.6766L0.677246 25.9688L2.2566 26.3227Z" fill="#F9F9F9"/>
<path d="M2.25781 26.3227L2.6296 25.9688H3.83717L2.25781 26.3227Z" fill="#F9F9F9"/>
<path d="M2.2566 26.3227L0.677246 25.9688H1.88333L2.2566 26.3227Z" fill="#F9F9F9"/>
<path d="M2.25636 26.3242L1.2793 27.8262L2.25636 27.1169V26.3242Z" fill="#F9F9F9"/>
<path d="M3.83717 25.9688L2.25781 26.3227L2.86011 26.6766L3.83717 25.9688Z" fill="#F9F9F9"/>
<path d="M2.25781 26.3242L3.23338 27.8262L2.25781 27.1169V26.3242Z" fill="#F9F9F9"/>
<path d="M10.4041 24.8203L10.7773 25.9684H11.9834L11.0078 26.6763L11.3811 27.8244L10.4041 27.115L9.42849 27.8244L9.80177 26.6763L8.82471 25.9684H10.0323L10.4041 24.8203Z" fill="#F9F9F9"/>
<path d="M10.405 26.3223L10.0332 25.9684L10.405 24.8203V26.3223Z" fill="#F9F9F9"/>
<path d="M10.4041 26.3227L9.80177 26.6766L8.82471 25.9688L10.4041 26.3227Z" fill="#F9F9F9"/>
<path d="M10.4053 26.3227L10.7785 25.9688H11.9846L10.4053 26.3227Z" fill="#F9F9F9"/>
<path d="M10.4041 26.3227L8.82471 25.9688H10.0323L10.4041 26.3227Z" fill="#F9F9F9"/>
<path d="M10.4043 26.3242L9.42871 27.8262L10.4043 27.1169V26.3242Z" fill="#F9F9F9"/>
<path d="M11.9846 25.9688L10.4053 26.3227L11.0091 26.6766L11.9846 25.9688Z" fill="#F9F9F9"/>
<path d="M10.4053 26.3242L11.3823 27.8262L10.4053 27.1169V26.3242Z" fill="#F9F9F9"/>
<path d="M18.5525 24.8203L18.9258 25.9684H20.1319L19.1563 26.6763L19.5281 27.8244L18.5525 27.115L17.5769 27.8244L17.9487 26.6763L16.9731 25.9684H18.1792L18.5525 24.8203Z" fill="#F9F9F9"/>
<path d="M18.553 26.3223L18.1797 25.9684L18.553 24.8203V26.3223Z" fill="#F9F9F9"/>
<path d="M18.5525 26.3227L17.9487 26.6766L16.9731 25.9688L18.5525 26.3227Z" fill="#F9F9F9"/>
<path d="M18.5537 26.3227L18.927 25.9688H20.1331L18.5537 26.3227Z" fill="#F9F9F9"/>
<path d="M18.5525 26.3227L16.9731 25.9688H18.1792L18.5525 26.3227Z" fill="#F9F9F9"/>
<path d="M18.5527 26.3242L17.5771 27.8262L18.5527 27.1169V26.3242Z" fill="#F9F9F9"/>
<path d="M20.1331 25.9688L18.5537 26.3227L19.1575 26.6766L20.1331 25.9688Z" fill="#F9F9F9"/>
<path d="M18.5537 26.3242L19.5293 27.8262L18.5537 27.1169V26.3242Z" fill="#F9F9F9"/>
<path d="M26.7 24.8203L27.0718 25.9684H28.2793L27.3023 26.6763L27.6756 27.8244L26.7 27.115L25.7229 27.8244L26.0962 26.6763L25.1191 25.9684H26.3267L26.7 24.8203Z" fill="#F9F9F9"/>
<path d="M26.7009 26.3223L26.3276 25.9684L26.7009 24.8203V26.3223Z" fill="#F9F9F9"/>
<path d="M26.7 26.3227L26.0962 26.6766L25.1191 25.9688L26.7 26.3227Z" fill="#F9F9F9"/>
<path d="M26.6997 26.3227L27.0715 25.9688H28.2791L26.6997 26.3227Z" fill="#F9F9F9"/>
<path d="M26.7 26.3227L25.1191 25.9688H26.3267L26.7 26.3227Z" fill="#F9F9F9"/>
<path d="M26.7002 26.3242L25.7231 27.8262L26.7002 27.1169V26.3242Z" fill="#F9F9F9"/>
<path d="M28.2791 25.9688L26.6997 26.3227L27.302 26.6766L28.2791 25.9688Z" fill="#F9F9F9"/>
<path d="M26.6997 26.3242L27.6753 27.8262L26.6997 27.1169V26.3242Z" fill="#F9F9F9"/>
<path d="M14.4798 4.20312L14.8516 5.35121H16.0591L15.0821 6.06058L15.4553 7.20717L14.4798 6.4978L13.5027 7.20717L13.876 6.06058L12.8989 5.35121H14.1065L14.4798 4.20312Z" fill="#F9F9F9"/>
<path d="M14.4807 5.70515L14.1074 5.35121L14.4807 4.20312V5.70515Z" fill="#F9F9F9"/>
<path d="M14.4798 5.7055L13.876 6.06093L12.8989 5.35156L14.4798 5.7055Z" fill="#F9F9F9"/>
<path d="M14.4795 5.7055L14.8513 5.35156H16.0588L14.4795 5.7055Z" fill="#F9F9F9"/>
<path d="M14.4798 5.7055L12.8989 5.35156H14.1065L14.4798 5.7055Z" fill="#F9F9F9"/>
<path d="M14.48 5.70703L13.5029 7.20906L14.48 6.49968V5.70703Z" fill="#F9F9F9"/>
<path d="M16.0588 5.35156L14.4795 5.7055L15.0818 6.06093L16.0588 5.35156Z" fill="#F9F9F9"/>
<path d="M14.4795 5.70703L15.4551 7.20906L14.4795 6.49968V5.70703Z" fill="#F9F9F9"/>
<path d="M22.6262 4.20312L22.9995 5.35121H24.2056L23.23 6.06058L23.6033 7.20717L22.6262 6.4978L21.6507 7.20717L22.0239 6.06058L21.0469 5.35121H22.2544L22.6262 4.20312Z" fill="#F9F9F9"/>
<path d="M22.6272 5.70515L22.2554 5.35121L22.6272 4.20312V5.70515Z" fill="#F9F9F9"/>
<path d="M22.6262 5.7055L22.0239 6.06093L21.0469 5.35156L22.6262 5.7055Z" fill="#F9F9F9"/>
<path d="M22.6274 5.7055L23.0007 5.35156H24.2068L22.6274 5.7055Z" fill="#F9F9F9"/>
<path d="M22.6262 5.7055L21.0469 5.35156H22.2544L22.6262 5.7055Z" fill="#F9F9F9"/>
<path d="M22.6265 5.70703L21.6509 7.20906L22.6265 6.49968V5.70703Z" fill="#F9F9F9"/>
<path d="M24.2068 5.35156L22.6274 5.7055L23.2312 6.06093L24.2068 5.35156Z" fill="#F9F9F9"/>
<path d="M22.6274 5.70703L23.6045 7.20906L22.6274 6.49968V5.70703Z" fill="#F9F9F9"/>
<path d="M6.93216 11.9356L7.30395 13.0822L6.32838 12.3728L5.35281 13.0822L5.7246 11.9356L4.95871 11.3794L4.74902 11.2262H5.9551L6.32838 10.0781L6.70165 11.2262H7.90774L6.93216 11.9356Z" fill="#F9F9F9"/>
<path d="M6.32884 11.5802L5.95557 11.2262L6.32884 10.0781V11.5802Z" fill="#F9F9F9"/>
<path d="M6.32838 11.5805L5.7246 11.9359L4.95871 11.3797L4.74902 11.2266L5.02415 11.2875L6.32838 11.5805Z" fill="#F9F9F9"/>
<path d="M6.32959 11.5805L6.70286 11.2266H7.90895L6.32959 11.5805Z" fill="#F9F9F9"/>
<path d="M6.32838 11.5805L5.02415 11.2875L4.74902 11.2266H5.9551L6.32838 11.5805Z" fill="#F9F9F9"/>
<path d="M6.3286 11.582L5.35303 13.0841L6.3286 12.3747V11.582Z" fill="#F9F9F9"/>
<path d="M7.90895 11.2266L6.32959 11.5805L6.93337 11.9359L7.90895 11.2266Z" fill="#F9F9F9"/>
<path d="M6.32959 11.582L7.30516 13.0841L6.32959 12.3747V11.582Z" fill="#F9F9F9"/>
<path d="M14.4773 10.0781L14.8491 11.2262H16.0567L15.0796 11.9356L15.4529 13.0822L14.4773 12.3728L13.5003 13.0822L13.8735 11.9356L12.8965 11.2262H14.1041L14.4773 10.0781Z" fill="#F9F9F9"/>
<path d="M14.4783 11.5802L14.105 11.2262L14.4783 10.0781V11.5802Z" fill="#F9F9F9"/>
<path d="M14.4773 11.5805L13.8735 11.9359L12.8965 11.2266L14.4773 11.5805Z" fill="#F9F9F9"/>
<path d="M14.4771 11.5805L14.8488 11.2266H16.0564L14.4771 11.5805Z" fill="#F9F9F9"/>
<path d="M14.4773 11.5805L12.8965 11.2266H14.1041L14.4773 11.5805Z" fill="#F9F9F9"/>
<path d="M14.4775 11.582L13.5005 13.0841L14.4775 12.3747V11.582Z" fill="#F9F9F9"/>
<path d="M16.0564 11.2266L14.4771 11.5805L15.0793 11.9359L16.0564 11.2266Z" fill="#F9F9F9"/>
<path d="M14.4771 11.582L15.4526 13.0841L14.4771 12.3747V11.582Z" fill="#F9F9F9"/>
<path d="M22.6243 10.0781L22.9976 11.2262H24.2036L23.2281 11.9356L23.6013 13.0822L22.6243 12.3728L21.6487 13.0822L22.022 11.9356L21.0449 11.2262H22.2525L22.6243 10.0781Z" fill="#F9F9F9"/>
<path d="M22.6252 11.5802L22.2534 11.2262L22.6252 10.0781V11.5802Z" fill="#F9F9F9"/>
<path d="M22.6243 11.5805L22.022 11.9359L21.0449 11.2266L22.6243 11.5805Z" fill="#F9F9F9"/>
<path d="M22.6255 11.5805L22.9988 11.2266H24.2048L22.6255 11.5805Z" fill="#F9F9F9"/>
<path d="M22.6243 11.5805L21.0449 11.2266H22.2525L22.6243 11.5805Z" fill="#F9F9F9"/>
<path d="M22.6245 11.582L21.6489 13.0841L22.6245 12.3747V11.582Z" fill="#F9F9F9"/>
<path d="M24.2048 11.2266L22.6255 11.5805L23.2293 11.9359L24.2048 11.2266Z" fill="#F9F9F9"/>
<path d="M22.6255 11.582L23.6025 13.0841L22.6255 12.3747V11.582Z" fill="#F9F9F9"/>
<path d="M6.32838 15.9727L6.70165 17.1207H7.90774L6.93216 17.8301L7.30395 18.9767L6.32838 18.2673L5.35281 18.9767L5.7246 17.8301L4.74902 17.1207H5.9551L6.32838 15.9727Z" fill="#F9F9F9"/>
<path d="M6.32884 17.4747L5.95557 17.1207L6.32884 15.9727V17.4747Z" fill="#F9F9F9"/>
<path d="M6.32838 17.475L5.7246 17.8305L4.74902 17.1211L6.32838 17.475Z" fill="#F9F9F9"/>
<path d="M6.32959 17.475L6.70286 17.1211H7.90895L6.32959 17.475Z" fill="#F9F9F9"/>
<path d="M6.32838 17.475L4.74902 17.1211H5.9551L6.32838 17.475Z" fill="#F9F9F9"/>
<path d="M6.3286 17.4766L5.35303 18.9786L6.3286 18.2692V17.4766Z" fill="#F9F9F9"/>
<path d="M7.90895 17.1211L6.32959 17.475L6.93337 17.8305L7.90895 17.1211Z" fill="#F9F9F9"/>
<path d="M6.32959 17.4766L7.30516 18.9786L6.32959 18.2692V17.4766Z" fill="#F9F9F9"/>
<path d="M14.4773 15.9727L14.8491 17.1207H16.0567L15.0796 17.8301L15.4529 18.9767L14.4773 18.2673L13.5003 18.9767L13.8735 17.8301L12.8965 17.1207H14.1041L14.4773 15.9727Z" fill="#F9F9F9"/>
<path d="M14.4783 17.4747L14.105 17.1207L14.4783 15.9727V17.4747Z" fill="#F9F9F9"/>
<path d="M14.4773 17.475L13.8735 17.8305L12.8965 17.1211L14.4773 17.475Z" fill="#F9F9F9"/>
<path d="M14.4771 17.475L14.8488 17.1211H16.0564L14.4771 17.475Z" fill="#F9F9F9"/>
<path d="M14.4773 17.475L12.8965 17.1211H14.1041L14.4773 17.475Z" fill="#F9F9F9"/>
<path d="M14.4775 17.4766L13.5005 18.9786L14.4775 18.2692V17.4766Z" fill="#F9F9F9"/>
<path d="M16.0564 17.1211L14.4771 17.475L15.0793 17.8305L16.0564 17.1211Z" fill="#F9F9F9"/>
<path d="M14.4771 17.4766L15.4526 18.9786L14.4771 18.2692V17.4766Z" fill="#F9F9F9"/>
<path d="M22.6243 15.9727L22.9976 17.1207H24.2036L23.2281 17.8301L23.6013 18.9767L22.6243 18.2673L21.6487 18.9767L22.022 17.8301L21.0449 17.1207H22.2525L22.6243 15.9727Z" fill="#F9F9F9"/>
<path d="M22.6252 17.4747L22.2534 17.1207L22.6252 15.9727V17.4747Z" fill="#F9F9F9"/>
<path d="M22.6243 17.475L22.022 17.8305L21.0449 17.1211L22.6243 17.475Z" fill="#F9F9F9"/>
<path d="M22.6255 17.475L22.9988 17.1211H24.2048L22.6255 17.475Z" fill="#F9F9F9"/>
<path d="M22.6243 17.475L21.0449 17.1211H22.2525L22.6243 17.475Z" fill="#F9F9F9"/>
<path d="M22.6245 17.4766L21.6489 18.9786L22.6245 18.2692V17.4766Z" fill="#F9F9F9"/>
<path d="M24.2048 17.1211L22.6255 17.475L23.2293 17.8305L24.2048 17.1211Z" fill="#F9F9F9"/>
<path d="M22.6255 17.4766L23.6025 18.9786L22.6255 18.2692V17.4766Z" fill="#F9F9F9"/>
<path d="M6.32838 21.8672L6.70165 23.0153H7.90774L6.93216 23.7232L7.30395 24.8712L6.32838 24.1619L5.35281 24.8712L5.7246 23.7232L4.74902 23.0153H5.9551L6.32838 21.8672Z" fill="#F9F9F9"/>
<path d="M6.32884 23.3692L5.95557 23.0153L6.32884 21.8672V23.3692Z" fill="#F9F9F9"/>
<path d="M6.32838 23.3696L5.7246 23.7235L4.74902 23.0156L6.32838 23.3696Z" fill="#F9F9F9"/>
<path d="M6.32959 23.3696L6.70286 23.0156H7.90895L6.32959 23.3696Z" fill="#F9F9F9"/>
<path d="M6.32838 23.3696L4.74902 23.0156H5.9551L6.32838 23.3696Z" fill="#F9F9F9"/>
<path d="M6.3286 23.3711L5.35303 24.8731L6.3286 24.1637V23.3711Z" fill="#F9F9F9"/>
<path d="M7.90895 23.0156L6.32959 23.3696L6.93337 23.7235L7.90895 23.0156Z" fill="#F9F9F9"/>
<path d="M6.32959 23.3711L7.30516 24.8731L6.32959 24.1637V23.3711Z" fill="#F9F9F9"/>
<path d="M14.4773 21.8672L14.8491 23.0153H16.0567L15.0796 23.7232L15.4529 24.8712L14.4773 24.1619L13.5003 24.8712L13.8735 23.7232L12.8965 23.0153H14.1041L14.4773 21.8672Z" fill="#F9F9F9"/>
<path d="M14.4783 23.3692L14.105 23.0153L14.4783 21.8672V23.3692Z" fill="#F9F9F9"/>
<path d="M14.4773 23.3696L13.8735 23.7235L12.8965 23.0156L14.4773 23.3696Z" fill="#F9F9F9"/>
<path d="M14.4771 23.3696L14.8488 23.0156H16.0564L14.4771 23.3696Z" fill="#F9F9F9"/>
<path d="M14.4773 23.3696L12.8965 23.0156H14.1041L14.4773 23.3696Z" fill="#F9F9F9"/>
<path d="M14.4775 23.3711L13.5005 24.8731L14.4775 24.1637V23.3711Z" fill="#F9F9F9"/>
<path d="M16.0564 23.0156L14.4771 23.3696L15.0793 23.7235L16.0564 23.0156Z" fill="#F9F9F9"/>
<path d="M14.4771 23.3711L15.4526 24.8731L14.4771 24.1637V23.3711Z" fill="#F9F9F9"/>
<path d="M22.6243 21.8672L22.9976 23.0153H24.2036L23.2281 23.7232L23.6013 24.8712L22.6243 24.1619L21.6487 24.8712L22.022 23.7232L21.0449 23.0153H22.2525L22.6243 21.8672Z" fill="#F9F9F9"/>
<path d="M22.6252 23.3692L22.2534 23.0153L22.6252 21.8672V23.3692Z" fill="#F9F9F9"/>
<path d="M22.6243 23.3696L22.022 23.7235L21.0449 23.0156L22.6243 23.3696Z" fill="#F9F9F9"/>
<path d="M22.6255 23.3696L22.9988 23.0156H24.2048L22.6255 23.3696Z" fill="#F9F9F9"/>
<path d="M22.6243 23.3696L21.0449 23.0156H22.2525L22.6243 23.3696Z" fill="#F9F9F9"/>
<path d="M22.6245 23.3711L21.6489 24.8731L22.6245 24.1637V23.3711Z" fill="#F9F9F9"/>
<path d="M24.2048 23.0156L22.6255 23.3696L23.2293 23.7235L24.2048 23.0156Z" fill="#F9F9F9"/>
<path d="M22.6255 23.3711L23.6025 24.8731L22.6255 24.1637V23.3711Z" fill="#F9F9F9"/>
<path d="M41.3994 4.16337H29.6836V0.140625C33.9592 0.561489 37.9432 1.98023 41.3994 4.16337Z" fill="#DE0A09"/>
<path d="M46.4869 8.31768H29.6836V4.16406H41.3994C43.2613 5.33891 44.97 6.73535 46.4869 8.31768Z" fill="white"/>
<path d="M49.7616 12.4715H29.6836V8.31641H46.4869C47.7079 9.58792 48.8054 10.9799 49.7616 12.4715Z" fill="#DE0A09"/>
<path d="M51.9373 16.6317H29.6836V12.4766H49.7616C50.6019 13.7882 51.3306 15.1772 51.9373 16.6317Z" fill="white"/>
<path d="M53.2847 20.784H29.6836V16.6289H51.9373C52.4935 17.9629 52.9471 19.3504 53.2847 20.784Z" fill="#DE0A09"/>
<path d="M53.9286 24.9364H29.6836V20.7812H53.2847C53.603 22.1301 53.8216 23.5176 53.9286 24.9364Z" fill="white"/>
<path d="M54.0075 27.0097C54.0075 27.7086 53.9807 28.4016 53.9286 29.0872H29.6836V24.9336H53.9286C53.9807 25.6192 54.0075 26.3107 54.0075 27.0097Z" fill="#DE0A09"/>
<path d="M53.9295 29.0859C53.8209 30.5047 53.6038 31.8922 53.2855 33.241H0.719132C0.400882 31.8922 0.183757 30.5047 0.0751953 29.0859H53.9295Z" fill="white"/>
<path d="M53.2861 33.2422C52.947 34.6743 52.4949 36.0633 51.9388 37.3973H2.06709C1.51089 36.0633 1.0588 34.6743 0.719727 33.2422H53.2861Z" fill="#DE0A09"/>
<path d="M51.9376 37.3945C51.3308 38.849 50.6021 40.238 49.7619 41.5496H4.24162C3.40138 40.238 2.67268 38.849 2.06592 37.3945H51.9376Z" fill="white"/>
<path d="M49.7615 41.5508C48.8067 43.0424 47.7092 44.4329 46.4882 45.7044H7.51443C6.29348 44.4329 5.19596 43.0424 4.24121 41.5508H49.7615Z" fill="#DE0A09"/>
<path d="M46.4889 45.707C44.9706 47.2894 43.2618 48.6873 41.3999 49.8621H12.6042C10.7408 48.6873 9.03203 47.2894 7.51514 45.707H46.4889Z" fill="white"/>
<path d="M41.3993 49.8594C37.2308 52.4916 32.2934 54.0145 27.0006 54.0145C21.7079 54.0145 16.7705 52.4916 12.6035 49.8594H41.3993Z" fill="#DE0A09"/>
</g>
</svg>
