<svg width="54" height="54" viewBox="0 0 54 54" fill="none" xmlns="http://www.w3.org/2000/svg">
<mask id="mask0_405_1183" style="mask-type:alpha" maskUnits="userSpaceOnUse" x="0" y="0" width="54" height="54">
<circle cx="27" cy="27" r="27" fill="white"/>
</mask>
<g mask="url(#mask0_405_1183)">
<path d="M54 26.9993C54 27.6981 53.9732 28.3909 53.9212 29.0764C53.8454 30.0591 53.719 31.0256 53.5406 31.9757C53.4633 32.3979 53.3755 32.8157 53.2774 33.2305C53.1614 33.7167 53.0336 34.2 52.8923 34.6757C52.702 35.3225 52.4864 35.9589 52.2485 36.5833C52.1474 36.8524 52.0404 37.1201 51.9303 37.3847C51.7564 37.7996 51.5735 38.2099 51.3802 38.6143C50.9624 39.4916 50.4985 40.3435 49.9885 41.1642C49.9127 41.2906 49.8339 41.4155 49.7551 41.5389C48.8675 42.9246 47.8579 44.2241 46.7383 45.421C46.6536 45.5117 46.5688 45.6024 46.4826 45.6916C44.9646 47.2736 43.2562 48.6712 41.3947 49.8458C39.2611 51.1929 36.9268 52.2485 34.4453 52.9592C33.5636 53.212 32.6626 53.4216 31.7452 53.5837C30.2048 53.8573 28.6184 54 26.9993 54C25.218 54 23.4785 53.8275 21.7954 53.4975C20.878 53.319 19.977 53.0945 19.0953 52.8239C16.7833 52.1177 14.6066 51.1096 12.6053 49.8458C10.7423 48.6712 9.03395 47.2736 7.51739 45.6916C7.44751 45.6188 7.37763 45.5459 7.30775 45.4716C6.80222 44.9333 6.31901 44.3728 5.85809 43.7944C5.28269 43.0718 4.74446 42.3195 4.24489 41.5389C4.2211 41.5017 4.19582 41.4631 4.17352 41.4244C3.3632 40.1458 2.65844 38.7972 2.06966 37.3847C1.96707 37.1409 1.86894 36.8941 1.77676 36.6458C1.52697 36.0005 1.30543 35.3433 1.10768 34.6757C0.966436 34.2 0.838569 33.7167 0.722597 33.2305C0.624467 32.8157 0.536744 32.3979 0.459429 31.9757C0.28101 31.0256 0.15463 30.0591 0.0788017 29.0764C0.0267628 28.3909 0 27.6981 0 26.9993C0 25.2998 0.157603 23.6361 0.457942 22.0243C0.572428 21.4088 0.707729 20.8022 0.863845 20.203C0.869793 20.1732 0.877227 20.145 0.886148 20.1167C0.889121 20.1019 0.893582 20.087 0.898042 20.0721C0.963463 19.8209 1.03334 19.5726 1.10768 19.3243C1.23555 18.8916 1.37383 18.4634 1.524 18.0396C1.76932 17.3379 2.0429 16.651 2.34472 15.9789C2.41163 15.8287 2.47854 15.683 2.54693 15.5373C2.59748 15.4303 2.64952 15.3217 2.70156 15.2147C2.7536 15.1061 2.80713 14.9991 2.86214 14.892C2.95432 14.7062 3.04948 14.5233 3.14612 14.3404C3.17288 14.2884 3.20113 14.2364 3.22938 14.1843C3.37361 13.9167 3.52229 13.6535 3.67692 13.3918C4.07687 12.7064 4.50805 12.0388 4.966 11.3935C4.98681 11.3623 5.00911 11.3326 5.03142 11.3014C5.0448 11.2805 5.05967 11.2612 5.07453 11.2404C5.61723 10.4866 6.19857 9.76101 6.81709 9.06815C9.93645 5.55627 13.9598 2.86511 18.5229 1.35747C18.5333 1.3545 18.5437 1.35004 18.5541 1.34706C18.5615 1.34409 18.5704 1.34112 18.5794 1.33963C18.7504 1.28313 18.9228 1.22812 19.0953 1.17608C19.977 0.905476 20.878 0.679479 21.7954 0.502547C23.4799 0.172472 25.2195 0 26.9993 0C27.9047 0 28.7983 0.0446048 29.6815 0.132327C30.3773 0.200721 31.0657 0.295878 31.7452 0.416311C32.6626 0.578375 33.5621 0.78653 34.4453 1.04078C36.9253 1.74999 39.2611 2.80564 41.3947 4.15419C43.2562 5.32878 44.9646 6.72491 46.4811 8.30689C46.6239 8.45557 46.7651 8.60574 46.9034 8.7574C47.403 9.30158 47.8787 9.86508 48.3322 10.4479C48.8363 11.0962 49.312 11.7682 49.7551 12.4611C49.8339 12.5845 49.9127 12.7094 49.99 12.8358C50.732 14.0356 51.3817 15.2994 51.9303 16.6153C52.0716 16.9558 52.2069 17.2992 52.3348 17.6456C52.5399 18.1973 52.7258 18.7563 52.8923 19.3243C53.035 19.8 53.1629 20.2818 53.2774 20.7695C53.3755 21.1843 53.4633 21.6021 53.5406 22.0243C53.719 22.9744 53.8469 23.9409 53.9212 24.9236C53.9732 25.6091 54 26.3004 54 26.9993Z" fill="#DE2810"/>
<path d="M25.2696 15.4973H18.3797L16.2505 8.875L14.1214 15.4973H7.23145L12.8056 19.5891L10.6764 26.2099L16.2505 22.1182L21.8246 26.2099L19.6955 19.5891L25.2696 15.4973Z" fill="#FFFF00"/>
<path d="M32.4562 28.1022L30.7508 27.9342L30.385 26.2422L29.6951 27.8301L27.9897 27.6606L29.2699 28.8114L28.5815 30.3979L30.0609 29.5206L31.341 30.6714L30.9753 28.9794L32.4562 28.1022Z" fill="#FFFF00"/>
<path d="M36.1795 20.6369L34.5187 21.0622L33.5954 19.5977L33.4913 21.3253L31.8306 21.7506L33.4274 22.3929L33.3233 24.1206L34.4132 22.7899L36.01 23.4322L35.0882 21.9677L36.1795 20.6369Z" fill="#FFFF00"/>
<path d="M35.5496 11.7539L34.2427 12.8646L32.7722 11.9517L33.4353 13.55L32.1299 14.6606L33.8457 14.5387L34.5088 16.1371L34.9058 14.4629L36.6231 14.341L35.1526 13.4281L35.5496 11.7539Z" fill="#FFFF00"/>
<path d="M32.5975 6.34545L30.8981 6.11648L30.5918 4.41406L29.8484 5.97672L28.1489 5.74923L29.3889 6.94167L28.644 8.50432L30.1547 7.67913L31.3932 8.87305L31.0869 7.17064L32.5975 6.34545Z" fill="#FFFF00"/>
</g>
</svg>
