<svg width="34" height="34" viewBox="0 0 34 34" fill="none" xmlns="http://www.w3.org/2000/svg">
<path d="M8.66878 0.824219H25.2451C27.4564 0.824219 29.2508 2.63205 29.2508 4.85973V27.29C29.2508 28.5401 28.2432 29.5522 27.0054 29.5522H6.90851C5.66762 29.5522 4.66309 28.537 4.66309 27.29V4.85973C4.66309 2.63205 6.45756 0.824219 8.66878 0.824219Z" fill="white"/>
<path d="M2.03186 7.12109H3.72059V13.7916H2.03186C1.35077 13.7916 0.800293 13.2339 0.800293 12.5509V8.36496C0.800293 7.6788 1.35388 7.12423 2.03186 7.12423V7.12109Z" fill="white"/>
<path d="M31.9677 13.7656H30.2789V7.09513H31.9677C32.6487 7.09513 33.1992 7.65283 33.1992 8.33586V12.5218C33.1992 13.2079 32.6456 13.7625 31.9677 13.7625V13.7656Z" fill="white"/>
<path d="M9.59291 3.37891H24.07C25.4198 3.37891 26.5145 4.48178 26.5145 5.84157V15.9899C26.5145 16.8546 25.8178 17.5533 24.9626 17.5533H8.70033C7.84197 17.5533 7.14844 16.8515 7.14844 15.9899V5.84157C7.14844 4.48178 8.24316 3.37891 9.59291 3.37891Z" fill="#57BF08"/>
<path d="M10.5535 23.2969H7.39371C7.07595 23.2969 6.81836 23.5564 6.81836 23.8765V25.6624C6.81836 25.9825 7.07595 26.242 7.39371 26.242H10.5535C10.8712 26.242 11.1288 25.9825 11.1288 25.6624V23.8765C11.1288 23.5564 10.8712 23.2969 10.5535 23.2969Z" fill="#57BF08"/>
<path d="M26.74 23.2969H23.5802C23.2625 23.2969 23.0049 23.5564 23.0049 23.8765V25.6624C23.0049 25.9825 23.2625 26.242 23.5802 26.242H26.74C27.0578 26.242 27.3154 25.9825 27.3154 25.6624V23.8765C27.3154 23.5564 27.0578 23.2969 26.74 23.2969Z" fill="#57BF08"/>
<path d="M6.57617 31.5652C6.57617 32.4926 7.32257 33.2477 8.24625 33.2477H10.3331C11.2536 33.2477 12.0031 32.4958 12.0031 31.5652V30.5156H6.57928V31.5652H6.57617Z" fill="white"/>
<path d="M22.4468 30.5078V31.5574C22.4468 32.4848 23.1932 33.2399 24.1169 33.2399H26.2037C27.1242 33.2399 27.8737 32.488 27.8737 31.5574V30.5078H22.4499H22.4468Z" fill="white"/>
<path d="M21.6456 25.0781H12.4897V26.0431H21.6456V25.0781Z" fill="#57BF08"/>
</svg>
