<svg width="54" height="54" viewBox="0 0 54 54" fill="none" xmlns="http://www.w3.org/2000/svg">
<path d="M54 26.9993C54 27.6996 53.9732 28.3909 53.9212 29.0764C53.8454 30.0591 53.719 31.0256 53.5406 31.9757C53.4633 32.3979 53.3755 32.8157 53.2774 33.2305C53.1614 33.7167 53.0336 34.2 52.8923 34.6757C52.7615 35.1218 52.6173 35.5634 52.4626 35.999C52.3942 36.1968 52.3229 36.39 52.2485 36.5833C52.1474 36.8524 52.0404 37.1201 51.9303 37.3847C51.7564 37.7996 51.5735 38.2099 51.3802 38.6143C51.346 38.6857 51.3118 38.7571 51.2761 38.827C50.8866 39.6298 50.4569 40.4104 49.9885 41.1642C49.9127 41.2906 49.8339 41.4155 49.7551 41.5389C48.8675 42.9246 47.8579 44.2241 46.7383 45.421C46.6536 45.5117 46.5688 45.6024 46.4826 45.6916C45.0389 47.1948 43.4242 48.5329 41.6698 49.6689C41.5776 49.7298 41.4869 49.7878 41.3947 49.8458C40.9784 50.109 40.5546 50.3602 40.1235 50.6011C39.1853 51.123 38.2129 51.5913 37.2093 52.0002C36.3112 52.3675 35.3894 52.6886 34.4453 52.9592C33.5636 53.212 32.6626 53.4216 31.7452 53.5837C30.2048 53.8573 28.6184 54 26.9993 54C25.218 54 23.4785 53.8275 21.7954 53.4975C20.878 53.319 19.977 53.0945 19.0953 52.8239C18.3102 52.5845 17.5416 52.311 16.7907 52.0017C15.7871 51.5928 14.8147 51.1245 13.8765 50.6011C13.4454 50.3602 13.0216 50.109 12.6053 49.8458C12.5131 49.7878 12.4209 49.7298 12.3302 49.6689C10.5743 48.5329 8.95961 47.1948 7.51739 45.6916C7.44751 45.6188 7.37763 45.5459 7.30775 45.4716C6.80222 44.9333 6.31901 44.3728 5.85809 43.7944C5.28269 43.0718 4.74446 42.3195 4.24489 41.5389C4.2211 41.5017 4.19582 41.4631 4.17352 41.4244C3.64272 40.5873 3.15802 39.722 2.72386 38.827C2.49043 38.3541 2.27336 37.8739 2.06966 37.3847C1.96707 37.1409 1.86894 36.8941 1.77676 36.6458C1.69349 36.4317 1.61469 36.2176 1.53886 36.0005C1.38275 35.5634 1.24001 35.1218 1.10768 34.6757C0.966436 34.2 0.838569 33.7167 0.722597 33.2305C0.624467 32.8157 0.536744 32.3979 0.459429 31.9757C0.28101 31.0256 0.15463 30.0591 0.0788017 29.0764C0.0267628 28.3909 0 27.6996 0 27.0007C0 25.2998 0.157603 23.6361 0.457942 22.0243C0.572428 21.4088 0.707729 20.8022 0.863845 20.203C0.869793 20.1732 0.877227 20.145 0.886148 20.1167C0.889121 20.1019 0.893582 20.087 0.898042 20.0721C0.963463 19.8209 1.03334 19.5726 1.10768 19.3243C1.23555 18.8916 1.37383 18.4634 1.524 18.0396C1.52846 18.0248 1.53292 18.0144 1.53738 18.001C1.77973 17.3126 2.04885 16.6391 2.34472 15.9789C2.41163 15.8287 2.47854 15.683 2.54693 15.5373C2.59748 15.4303 2.64952 15.3217 2.70156 15.2147C2.709 15.2013 2.71494 15.1864 2.72238 15.173C2.76698 15.0779 2.81456 14.9857 2.86214 14.892C2.95432 14.7062 3.04948 14.5233 3.14612 14.3404C3.17288 14.2884 3.20113 14.2364 3.22938 14.1843C3.37361 13.9167 3.52229 13.6535 3.67692 13.3918C4.07687 12.7064 4.50805 12.0388 4.966 11.3935C4.98681 11.3623 5.00911 11.3326 5.03142 11.3014C5.0448 11.2805 5.05967 11.2612 5.07453 11.2404C5.61723 10.4866 6.19857 9.76101 6.81709 9.06815C8.4303 7.25273 10.2844 5.65588 12.3302 4.32963C12.8343 4.00253 13.3502 3.69179 13.8765 3.39888C14.8147 2.87552 15.7871 2.40717 16.7907 1.99681C17.3587 1.76486 17.9356 1.55225 18.5229 1.35747C18.5333 1.3545 18.5437 1.35004 18.5541 1.34706C18.5615 1.34409 18.5704 1.34112 18.5794 1.33963C18.7504 1.28313 18.9228 1.22812 19.0953 1.17608C19.977 0.905476 20.878 0.679479 21.7954 0.502547C23.3744 0.193287 25.0025 0.0223024 26.6662 0.00148683C26.7777 0 26.8877 0 26.9993 0C27.1108 0 27.2253 0 27.3383 0.00148683C28.1278 0.0118946 28.9083 0.0550125 29.6815 0.132327C30.3773 0.200721 31.0657 0.295878 31.7452 0.416311C32.6626 0.578375 33.5621 0.78653 34.4453 1.04078C35.3894 1.30989 36.3112 1.63105 37.2093 1.99829C38.2129 2.40717 39.1853 2.87701 40.1235 3.40037C40.5546 3.63826 40.9784 3.89102 41.3947 4.15419C41.4869 4.21218 41.5776 4.27016 41.6698 4.33112C43.4242 5.46706 45.0389 6.80371 46.4811 8.30689C46.6239 8.45557 46.7651 8.60574 46.9034 8.7574C47.403 9.30158 47.8787 9.86508 48.3322 10.4479C48.8363 11.0962 49.312 11.7682 49.7551 12.4611C49.8339 12.5845 49.9127 12.7094 49.99 12.8358C50.4569 13.5896 50.8866 14.3702 51.2791 15.173C51.5096 15.6459 51.7266 16.1276 51.9303 16.6153C52.0716 16.9558 52.2069 17.2992 52.3348 17.6456C52.3779 17.7631 52.421 17.8806 52.4626 17.9995C52.6187 18.4381 52.7615 18.8767 52.8923 19.3243C53.035 19.8 53.1629 20.2818 53.2774 20.7695C53.3755 21.1843 53.4633 21.6021 53.5406 22.0243C53.719 22.9744 53.8469 23.9409 53.9212 24.9236C53.9732 25.6091 54 26.3004 54 26.9993Z" fill="white"/>
<path d="M33.6696 33.6708C37.3537 29.9866 37.3537 24.0134 33.6696 20.3292C29.9854 16.6451 24.0122 16.6451 20.328 20.3292C16.6438 24.0134 16.6438 29.9866 20.328 33.6708C24.0122 37.3549 29.9854 37.3549 33.6696 33.6708Z" fill="#E70012"/>
</svg>
