<svg width="54" height="54" viewBox="0 0 54 54" fill="none" xmlns="http://www.w3.org/2000/svg">
<path d="M54 26.9993C54 27.6996 53.9732 28.3909 53.9212 29.0764C53.8454 30.0591 53.719 31.0256 53.5406 31.9757C53.4633 32.3979 53.3755 32.8157 53.2774 33.2305C53.1614 33.7167 53.0336 34.2 52.8923 34.6757C52.7615 35.1218 52.6173 35.5634 52.4626 35.999C52.3942 36.1968 52.3229 36.39 52.2485 36.5833C52.1474 36.8524 52.0404 37.1201 51.9303 37.3847C51.7564 37.7996 51.5735 38.2099 51.3802 38.6143C51.346 38.6857 51.3118 38.7571 51.2761 38.827C50.8866 39.6298 50.4569 40.4104 49.9885 41.1642C49.9127 41.2906 49.8339 41.4155 49.7551 41.5389C48.8675 42.9246 47.8579 44.2241 46.7383 45.421C46.6536 45.5117 46.5688 45.6024 46.4826 45.6916C45.0389 47.1948 43.4242 48.5329 41.6698 49.6689C41.5776 49.7298 41.4869 49.7878 41.3947 49.8458C40.9784 50.109 40.5546 50.3602 40.1235 50.6011C39.1853 51.123 38.2129 51.5913 37.2093 52.0002C36.3112 52.3675 35.3894 52.6886 34.4453 52.9592C33.5636 53.212 32.6626 53.4216 31.7452 53.5837C30.2048 53.8573 28.6184 54 26.9993 54C25.218 54 23.4785 53.8275 21.7954 53.4975C20.878 53.319 19.977 53.0945 19.0953 52.8239C18.3102 52.5845 17.5416 52.311 16.7907 52.0017C15.7871 51.5928 14.8147 51.1245 13.8765 50.6011C13.4454 50.3602 13.0216 50.109 12.6053 49.8458C12.5131 49.7878 12.4209 49.7298 12.3302 49.6689C10.5743 48.5329 8.95961 47.1948 7.51739 45.6916C7.44751 45.6188 7.37763 45.5459 7.30775 45.4716C6.80222 44.9333 6.31901 44.3728 5.85809 43.7944C5.28269 43.0718 4.74446 42.3195 4.24489 41.5389C4.2211 41.5017 4.19582 41.4631 4.17352 41.4244C3.64272 40.5873 3.15802 39.722 2.72386 38.827C2.49043 38.3541 2.27336 37.8739 2.06966 37.3847C1.96707 37.1409 1.86894 36.8941 1.77676 36.6458C1.69349 36.4317 1.61469 36.2176 1.53886 36.0005C1.38275 35.5634 1.24001 35.1218 1.10768 34.6757C0.966436 34.2 0.838569 33.7167 0.722597 33.2305C0.624467 32.8157 0.536744 32.3979 0.459429 31.9757C0.28101 31.0256 0.15463 30.0591 0.0788017 29.0764C0.0267628 28.3909 0 27.6996 0 27.0007C0 25.2998 0.157603 23.6361 0.457942 22.0243C0.572428 21.4088 0.707729 20.8022 0.863845 20.203C0.869793 20.1732 0.877227 20.145 0.886148 20.1167C0.889121 20.1019 0.893582 20.087 0.898042 20.0721C0.963463 19.8209 1.03334 19.5726 1.10768 19.3243C1.23555 18.8916 1.37383 18.4634 1.524 18.0396C1.52846 18.0248 1.53292 18.0144 1.53738 18.001C1.77973 17.3126 2.04885 16.6391 2.34472 15.9789C2.41163 15.8287 2.47854 15.683 2.54693 15.5373C2.59748 15.4303 2.64952 15.3217 2.70156 15.2147C2.709 15.2013 2.71494 15.1864 2.72238 15.173C2.76698 15.0779 2.81456 14.9857 2.86214 14.892C2.95432 14.7062 3.04948 14.5233 3.14612 14.3404C3.17288 14.2884 3.20113 14.2364 3.22938 14.1843C3.37361 13.9167 3.52229 13.6535 3.67692 13.3918C4.07687 12.7064 4.50805 12.0388 4.966 11.3935C4.98681 11.3623 5.00911 11.3326 5.03142 11.3014C5.0448 11.2805 5.05967 11.2612 5.07453 11.2404C5.61723 10.4866 6.19857 9.76101 6.81709 9.06815C8.4303 7.25273 10.2844 5.65588 12.3302 4.32963C12.8343 4.00253 13.3502 3.69179 13.8765 3.39888C14.8147 2.87552 15.7871 2.40717 16.7907 1.99681C17.3587 1.76486 17.9356 1.55225 18.5229 1.35747C18.5333 1.3545 18.5437 1.35004 18.5541 1.34706C18.5615 1.34409 18.5704 1.34112 18.5794 1.33963C18.7504 1.28313 18.9228 1.22812 19.0953 1.17608C19.977 0.905476 20.878 0.679479 21.7954 0.502547C23.3744 0.193287 25.0025 0.0223024 26.6662 0.00148683C26.7777 0 26.8877 0 26.9993 0C27.1108 0 27.2253 0 27.3383 0.00148683C28.1278 0.0118946 28.9083 0.0550125 29.6815 0.132327C30.3773 0.200721 31.0657 0.295878 31.7452 0.416311C32.6626 0.578375 33.5621 0.78653 34.4453 1.04078C35.3894 1.30989 36.3112 1.63105 37.2093 1.99829C38.2129 2.40717 39.1853 2.87701 40.1235 3.40037C40.5546 3.63826 40.9784 3.89102 41.3947 4.15419C41.4869 4.21218 41.5776 4.27016 41.6698 4.33112C43.4242 5.46706 45.0389 6.80371 46.4811 8.30689C46.6239 8.45557 46.7651 8.60574 46.9034 8.7574C47.403 9.30158 47.8787 9.86508 48.3322 10.4479C48.8363 11.0962 49.312 11.7682 49.7551 12.4611C49.8339 12.5845 49.9127 12.7094 49.99 12.8358C50.4569 13.5896 50.8866 14.3702 51.2791 15.173C51.5096 15.6459 51.7266 16.1276 51.9303 16.6153C52.0716 16.9558 52.2069 17.2992 52.3348 17.6456C52.3779 17.7631 52.421 17.8806 52.4626 17.9995C52.6187 18.4381 52.7615 18.8767 52.8923 19.3243C53.035 19.8 53.1629 20.2818 53.2774 20.7695C53.3755 21.1843 53.4633 21.6021 53.5406 22.0243C53.719 22.9744 53.8469 23.9409 53.9212 24.9236C53.9732 25.6091 54 26.3004 54 26.9993Z" fill="white"/>
<path d="M34.8578 28.895C34.8578 28.9232 34.8563 28.953 34.8534 28.9812C34.8534 29.005 34.8519 29.0273 34.8504 29.0496C34.8489 29.0719 34.8474 29.0942 34.843 29.115C34.8415 29.1418 34.8385 29.1715 34.834 29.1983C34.8311 29.2266 34.8266 29.2548 34.8236 29.2831C34.8221 29.2994 34.8192 29.3173 34.8162 29.3336C34.8132 29.3544 34.8088 29.3738 34.8058 29.3946C34.8013 29.4228 34.7954 29.454 34.7909 29.4823C34.7879 29.5046 34.782 29.5254 34.7775 29.5462C34.7746 29.5685 34.7686 29.5908 34.7642 29.6146C34.7597 29.6399 34.7523 29.6652 34.7478 29.6904C34.724 29.7886 34.6958 29.8867 34.6645 29.9834C34.6437 30.0473 34.6199 30.1127 34.5961 30.1752C34.5724 30.2406 34.5456 30.306 34.5188 30.3714C36.3699 26.2633 34.5813 21.4192 30.4866 19.5087C26.3904 17.5996 21.5299 19.3421 19.5733 23.4012C19.5584 23.4339 19.542 23.4636 19.5272 23.4963C19.5123 23.529 19.4989 23.5603 19.4826 23.5945C19.4543 23.6584 19.429 23.7238 19.4023 23.7892C19.3785 23.8517 19.3562 23.9171 19.3369 23.981C19.3056 24.0777 19.2774 24.1758 19.2536 24.2739C19.2491 24.2992 19.2417 24.3245 19.2372 24.3513C19.2328 24.3736 19.2268 24.3959 19.2239 24.4167C19.2194 24.439 19.2135 24.4613 19.2105 24.4806C19.206 24.5089 19.2001 24.5401 19.1956 24.5683C19.1926 24.5892 19.1882 24.6085 19.1852 24.6293C19.1837 24.6457 19.1807 24.6635 19.1778 24.6798C19.1748 24.7081 19.1689 24.7363 19.1674 24.7646C19.1644 24.7914 19.1599 24.8211 19.157 24.8479C19.1555 24.8702 19.154 24.8925 19.1525 24.9133C19.151 24.9341 19.1495 24.9579 19.148 24.9817C19.1465 25.0099 19.1451 25.0397 19.1451 25.0694C19.1436 25.0976 19.1421 25.1289 19.1421 25.1586V25.2761C19.1421 25.34 19.1451 25.4054 19.1495 25.4694C19.151 25.4946 19.1525 25.5199 19.154 25.5452V25.5556C19.1555 25.5779 19.157 25.6002 19.1614 25.624C19.1644 25.6686 19.1703 25.7117 19.1748 25.7563C19.1778 25.7771 19.1793 25.795 19.1837 25.8158C19.1867 25.8366 19.1882 25.8544 19.1941 25.8753C19.1941 25.8782 19.1941 25.8827 19.1956 25.8872C19.1986 25.9139 19.2045 25.9407 19.209 25.9704C19.2105 25.9793 19.212 25.9868 19.2135 25.9957C19.2164 26.0195 19.2224 26.0433 19.2268 26.0671C19.2283 26.0745 19.2298 26.0804 19.2313 26.0894C19.2358 26.1131 19.2417 26.1384 19.2462 26.1622C19.2477 26.1696 19.2491 26.1771 19.2536 26.186C19.2581 26.2083 19.264 26.2321 19.27 26.2559C19.2714 26.2663 19.2744 26.2752 19.2774 26.2841C19.2848 26.3109 19.2908 26.3362 19.2997 26.3644C19.3086 26.3971 19.319 26.4269 19.3265 26.4581C19.3265 26.4596 19.3279 26.4611 19.3279 26.4626C19.3369 26.4908 19.3473 26.5205 19.3562 26.5473C19.3562 26.5503 19.3577 26.5547 19.3592 26.5577C19.3681 26.5889 19.3785 26.6172 19.3904 26.6469C19.4008 26.6781 19.4127 26.7079 19.4246 26.7361C19.4246 26.7376 19.4261 26.7391 19.4261 26.7391C19.4365 26.7674 19.4484 26.7956 19.4603 26.8224C19.4618 26.8268 19.4632 26.8313 19.4647 26.8357C19.4766 26.864 19.4885 26.8937 19.5019 26.9205C19.5138 26.9487 19.5272 26.9785 19.5406 27.0052C19.542 27.0082 19.542 27.0097 19.5435 27.0142C19.5569 27.0424 19.5703 27.0721 19.5866 27.0989C19.6015 27.1301 19.6179 27.1584 19.6327 27.1866C19.6476 27.2149 19.664 27.2446 19.6803 27.2714V27.2744C19.6967 27.3026 19.7145 27.3309 19.7309 27.3591C19.7443 27.3844 19.7591 27.4082 19.777 27.4334C19.7784 27.4379 19.7814 27.4439 19.7859 27.4483C19.8022 27.4736 19.8201 27.5004 19.8364 27.5256C19.8558 27.5524 19.8736 27.5792 19.8929 27.6074C19.9078 27.6297 19.9256 27.652 19.9405 27.6728C19.9658 27.707 19.9911 27.7382 20.0163 27.7724C20.0312 27.7933 20.0491 27.8126 20.0654 27.8334C20.0684 27.8379 20.0743 27.8438 20.0773 27.8498C20.0907 27.8646 20.1026 27.881 20.116 27.8944C20.1264 27.9092 20.1383 27.9226 20.1502 27.9375C20.171 27.9598 20.1903 27.9821 20.2111 28.0059C20.2275 28.0222 20.2438 28.0416 20.2602 28.0579C20.2646 28.0653 20.2706 28.0698 20.2765 28.0743C20.2929 28.0951 20.3137 28.1129 20.333 28.1323C20.336 28.1367 20.342 28.1427 20.3449 28.1456C20.3598 28.1605 20.3762 28.1769 20.3925 28.1917C20.4237 28.223 20.455 28.2527 20.4892 28.2839C20.5025 28.2958 20.5159 28.3092 20.5293 28.3211C20.5457 28.3345 20.562 28.3478 20.5784 28.3612C20.6007 28.382 20.623 28.3984 20.6438 28.4192C20.6601 28.4326 20.6795 28.4475 20.6973 28.4623C20.7181 28.4772 20.7375 28.495 20.7583 28.5099C20.7746 28.5233 20.794 28.5367 20.8103 28.5501C20.849 28.5768 20.8861 28.6066 20.9278 28.6318C20.9441 28.6437 20.962 28.6556 20.9783 28.6675C21.0066 28.6868 21.0363 28.7047 21.0646 28.724C21.2088 28.8132 21.3619 28.8965 21.5195 28.9723C23.5832 29.9343 26.0365 29.0422 26.9985 26.9785C27.9619 24.9133 30.4152 24.0212 32.4789 24.9832C32.58 25.0322 32.6826 25.0828 32.7792 25.1393C32.803 25.1527 32.8283 25.1675 32.8521 25.1824C32.8789 25.1973 32.9056 25.2151 32.9339 25.2329C32.9621 25.2493 32.9919 25.2686 33.0201 25.2865C33.0365 25.2984 33.0543 25.3103 33.0707 25.3222C33.1093 25.3474 33.148 25.3757 33.1866 25.4039C33.206 25.4173 33.2238 25.4307 33.2417 25.4441C33.2625 25.4589 33.2818 25.4753 33.3026 25.4917C33.3219 25.5065 33.3383 25.5199 33.3561 25.5363C33.3784 25.5526 33.4007 25.5734 33.4216 25.5928C33.4379 25.6061 33.4543 25.6195 33.4691 25.6329C33.484 25.6448 33.4974 25.6582 33.5123 25.6701C33.545 25.7013 33.5777 25.731 33.6089 25.7623C33.6253 25.7771 33.6416 25.7935 33.655 25.8083C33.6594 25.8128 33.6654 25.8173 33.6684 25.8217C33.6877 25.8411 33.7055 25.8589 33.7249 25.8797L33.7412 25.8961C33.7576 25.9124 33.7739 25.9318 33.7903 25.9481C33.8111 25.9719 33.8304 25.9942 33.8498 26.0165C33.8617 26.0299 33.8736 26.0448 33.8854 26.0596C33.8988 26.0745 33.9107 26.0879 33.9226 26.1057C33.9271 26.1087 33.9315 26.1161 33.936 26.1206C33.9524 26.1414 33.9702 26.1607 33.9851 26.1815C34.0103 26.2157 34.0356 26.247 34.0609 26.2812C34.0758 26.3035 34.0921 26.3258 34.1085 26.3466C34.1278 26.3733 34.1456 26.4001 34.165 26.4284C34.1813 26.4551 34.1992 26.4804 34.2155 26.5057C34.217 26.5101 34.22 26.5161 34.2244 26.5205C34.2408 26.5458 34.2572 26.5711 34.2705 26.5949C34.2869 26.6231 34.3047 26.6514 34.3211 26.6796V26.6826C34.3374 26.7094 34.3538 26.7391 34.3687 26.7674C34.3835 26.7956 34.3999 26.8253 34.4148 26.8551C34.4296 26.8833 34.443 26.9131 34.4579 26.9398C34.4579 26.9428 34.4594 26.9473 34.4608 26.9487C34.4742 26.977 34.4876 27.0067 34.4995 27.0335C34.5129 27.0617 34.5248 27.09 34.5367 27.1182C34.5382 27.1227 34.5396 27.1272 34.5411 27.1316C34.553 27.1584 34.5634 27.1881 34.5753 27.2149C34.5753 27.2149 34.5758 27.2159 34.5768 27.2179C34.5887 27.2491 34.5991 27.2773 34.611 27.31C34.6214 27.3383 34.6318 27.368 34.6422 27.3978C34.6437 27.4007 34.6452 27.4052 34.6452 27.4082C34.6556 27.4349 34.6645 27.4647 34.6735 27.4929C34.6735 27.4944 34.6735 27.4959 34.675 27.4974C34.6839 27.5286 34.6943 27.5598 34.7017 27.5911C34.7091 27.6178 34.7166 27.6431 34.724 27.6713C34.7255 27.6817 34.7285 27.6907 34.7314 27.6996C34.7389 27.7234 34.7433 27.7457 34.7478 27.7695C34.7508 27.7784 34.7523 27.7843 34.7552 27.7933C34.7597 27.8185 34.7656 27.8423 34.7701 27.8661C34.7716 27.875 34.7731 27.881 34.7746 27.8884C34.779 27.9122 34.785 27.936 34.7879 27.9598C34.7894 27.9687 34.7909 27.9761 34.7924 27.9851C34.7969 28.0133 34.8028 28.0416 34.8058 28.0683C34.8073 28.0728 34.8073 28.0772 34.8073 28.0802C34.8103 28.101 34.8147 28.1204 34.8162 28.1397C34.8192 28.1605 34.8236 28.1783 34.8251 28.1992C34.8326 28.2438 34.837 28.2869 34.84 28.3315C34.8415 28.3553 34.8444 28.3776 34.8474 28.4014V28.4103C34.8489 28.4356 34.8504 28.4608 34.8519 28.4861C34.8549 28.5501 34.8593 28.6155 34.8593 28.6794V28.7969C34.8578 28.8281 34.8578 28.8578 34.8563 28.889L34.8578 28.895Z" fill="#CD2E3A"/>
<path d="M34.8529 28.4776C34.8514 28.4523 34.8499 28.427 34.8485 28.4018V28.3928C34.847 28.3691 34.844 28.3468 34.841 28.323C34.838 28.2784 34.8321 28.2352 34.8262 28.1906C34.8247 28.1698 34.8217 28.152 34.8172 28.1312C34.8157 28.1118 34.8128 28.0925 34.8083 28.0717C34.8083 28.0687 34.8083 28.0643 34.8068 28.0598C34.8039 28.033 34.7979 28.0063 34.7934 27.9765C34.792 27.9676 34.7905 27.9602 34.789 27.9513C34.786 27.9275 34.7801 27.9037 34.7756 27.8799C34.7741 27.8725 34.7726 27.8665 34.7711 27.8576C34.7667 27.8338 34.7607 27.81 34.7563 27.7847C34.7548 27.7758 34.7533 27.7699 34.7488 27.7609C34.7444 27.7372 34.7384 27.7149 34.7325 27.6911C34.731 27.6807 34.728 27.6717 34.725 27.6628C34.7176 27.636 34.7102 27.6108 34.7027 27.5825C34.6938 27.5513 34.6834 27.5201 34.676 27.4889C34.6745 27.4874 34.6745 27.4859 34.6745 27.4844C34.6641 27.4561 34.6552 27.4264 34.6462 27.3996C34.6462 27.3967 34.6448 27.3922 34.6433 27.3892C34.6329 27.358 34.6225 27.3298 34.612 27.3015C34.6002 27.2688 34.5897 27.2406 34.5779 27.2093C34.5779 27.2093 34.5774 27.2083 34.5764 27.2064C34.5645 27.1796 34.5541 27.1499 34.5422 27.1231C34.5407 27.1186 34.5392 27.1142 34.5377 27.1097C34.5258 27.0815 34.5139 27.0532 34.5005 27.025C34.4886 26.9982 34.4753 26.9685 34.4619 26.9402C34.4604 26.9387 34.4589 26.9358 34.4589 26.9313C34.4455 26.9045 34.4321 26.8748 34.4158 26.8465C34.4009 26.8153 34.3846 26.7871 34.3697 26.7588C34.3548 26.7306 34.3385 26.7008 34.3221 26.6741V26.6711C34.3058 26.6429 34.2879 26.6146 34.2716 26.5864C34.2582 26.5626 34.2433 26.5373 34.2255 26.512C34.2225 26.5076 34.218 26.5016 34.2166 26.4971C34.2002 26.4719 34.1824 26.4466 34.166 26.4198C34.1467 26.3931 34.1288 26.3663 34.1095 26.3381C34.0931 26.3158 34.0768 26.2934 34.0619 26.2726C34.0366 26.2384 34.0114 26.2072 33.9861 26.173C33.9712 26.1522 33.9534 26.1329 33.937 26.1121C33.9326 26.1076 33.9281 26.1002 33.9237 26.0972C33.9118 26.0808 33.8999 26.066 33.8865 26.0511C33.8746 26.0377 33.8627 26.0228 33.8508 26.008C33.8315 25.9857 33.8121 25.9634 33.7913 25.9396C33.775 25.9232 33.7586 25.9039 33.7423 25.8875L33.7259 25.8712C33.7066 25.8504 33.6887 25.8325 33.6694 25.8132C33.6664 25.8087 33.6605 25.8043 33.656 25.7998C33.6426 25.785 33.6278 25.7686 33.6099 25.7537C33.5787 25.7225 33.546 25.6928 33.5133 25.6615C33.4999 25.6497 33.4865 25.6363 33.4702 25.6244C33.4553 25.611 33.4389 25.5976 33.4226 25.5842C33.4003 25.5649 33.378 25.5456 33.3572 25.5277C33.3378 25.5129 33.3215 25.4995 33.3036 25.4831C33.2828 25.4668 33.2635 25.4504 33.2427 25.4355C33.2263 25.4222 33.207 25.4088 33.1877 25.3954C33.1505 25.3686 33.1118 25.3389 33.0717 25.3136C33.0553 25.3017 33.0375 25.2898 33.0211 25.2779C32.9929 25.2586 32.9632 25.2408 32.9349 25.2244C32.9081 25.2051 32.8814 25.1887 32.8531 25.1739C32.8293 25.1605 32.8041 25.1456 32.7803 25.1307C32.6836 25.0742 32.5825 25.0237 32.4799 24.9746C30.4162 24.0127 27.963 24.9048 26.9995 26.97C26.0375 29.0337 23.5843 29.9258 21.5206 28.9638C21.3629 28.8894 21.2098 28.8062 21.0656 28.7155C21.0373 28.6962 21.0076 28.6783 20.9793 28.659C20.963 28.6471 20.9451 28.6352 20.9288 28.6233C20.8887 28.598 20.8515 28.5698 20.8113 28.5415C20.795 28.5281 20.7757 28.5148 20.7593 28.5014C20.7385 28.4865 20.7192 28.4687 20.6983 28.4538C20.679 28.4404 20.6612 28.4256 20.6448 28.4107C20.6225 28.3899 20.6002 28.3735 20.5794 28.3527C20.563 28.3393 20.5467 28.3259 20.5303 28.3126C20.5169 28.3007 20.5036 28.2873 20.4902 28.2754C20.456 28.2442 20.4248 28.2144 20.3935 28.1832C20.3772 28.1683 20.3608 28.152 20.346 28.1371C20.343 28.1341 20.337 28.1282 20.3341 28.1237C20.3147 28.1044 20.2954 28.0866 20.2776 28.0657C20.2701 28.0613 20.2657 28.0553 20.2612 28.0494C20.2449 28.033 20.2285 28.0137 20.2121 27.9973C20.1913 27.9736 20.172 27.9513 20.1512 27.929C20.1393 27.9156 20.1274 27.9022 20.117 27.8858C20.1036 27.8725 20.0917 27.8576 20.0783 27.8412C20.0754 27.8338 20.0694 27.8293 20.0664 27.8249C20.0501 27.8041 20.0322 27.7847 20.0174 27.7639C19.9921 27.7297 19.9668 27.6985 19.9415 27.6643C19.9267 27.642 19.9088 27.6197 19.894 27.5989C19.8746 27.5721 19.8568 27.5454 19.8375 27.5171C19.8211 27.4918 19.8033 27.4651 19.7869 27.4398C19.7839 27.4353 19.7795 27.4294 19.778 27.4249C19.7616 27.3996 19.7453 27.3759 19.7319 27.3506C19.7155 27.3223 19.6977 27.2941 19.6813 27.2658V27.2629C19.665 27.2361 19.6486 27.2064 19.6338 27.1781C19.6189 27.1499 19.6025 27.1201 19.5877 27.0904C19.5728 27.0636 19.5594 27.0339 19.5446 27.0056C19.5431 27.0027 19.5431 27.0012 19.5416 26.9967C19.5282 26.97 19.5148 26.9402 19.5029 26.912C19.4895 26.8852 19.4777 26.8555 19.4658 26.8272C19.4643 26.8228 19.4628 26.8183 19.4613 26.8138C19.4494 26.7871 19.4375 26.7603 19.4271 26.7306C19.4271 26.7306 19.4256 26.7291 19.4256 26.7276C19.4137 26.6994 19.4018 26.6681 19.3914 26.6384C19.3795 26.6072 19.3691 26.5789 19.3602 26.5492C19.3587 26.5462 19.3572 26.5417 19.3572 26.5388C19.3468 26.512 19.3364 26.4823 19.329 26.454C19.329 26.4525 19.3275 26.4511 19.3275 26.4496C19.3186 26.4183 19.3082 26.3886 19.3007 26.3559C19.2918 26.3291 19.2859 26.3039 19.2784 26.2756C19.2769 26.2652 19.274 26.2563 19.271 26.2474C19.2636 26.2236 19.2591 26.1998 19.2546 26.1775C19.2517 26.1686 19.2502 26.1611 19.2472 26.1537C19.2427 26.1299 19.2368 26.1046 19.2323 26.0808C19.2308 26.0719 19.2294 26.066 19.2279 26.0585C19.2234 26.0347 19.2175 26.011 19.2145 25.9872C19.213 25.9782 19.2115 25.9708 19.21 25.9619C19.2056 25.9336 19.1996 25.9054 19.1966 25.8786C19.1952 25.8742 19.1952 25.8697 19.1952 25.8667C19.1907 25.8459 19.1877 25.8281 19.1847 25.8073C19.1818 25.7864 19.1803 25.7686 19.1758 25.7478C19.1714 25.7032 19.1654 25.6601 19.1624 25.6155C19.1595 25.5917 19.158 25.5694 19.155 25.5471V25.5367C19.1535 25.5114 19.152 25.4861 19.1506 25.4608C19.1476 25.3969 19.1431 25.3315 19.1431 25.2675V25.1501C19.1431 25.1189 19.1446 25.0891 19.1461 25.0609C19.1461 25.0296 19.1476 25.0014 19.1491 24.9731C19.1506 24.9494 19.152 24.9271 19.1535 24.9048C19.155 24.8825 19.1565 24.8601 19.158 24.8393C19.161 24.8126 19.1654 24.7828 19.1684 24.7561C19.1699 24.7278 19.1758 24.6996 19.1788 24.6713C19.1803 24.655 19.1833 24.6371 19.1862 24.6208C19.1892 24.6 19.1937 24.5806 19.1966 24.5598C19.2011 24.5316 19.2071 24.5003 19.2115 24.4721C19.2145 24.4513 19.2204 24.429 19.2249 24.4082C19.2279 24.3858 19.2338 24.3635 19.2383 24.3427C19.2427 24.316 19.2502 24.2907 19.2546 24.2654C19.2784 24.1673 19.3067 24.0692 19.3379 23.9725C19.3587 23.9086 19.381 23.8432 19.4033 23.7807C19.4286 23.7153 19.4539 23.6499 19.4836 23.5859C17.6325 27.6925 19.4212 32.5366 23.5159 34.4457C27.6106 36.3548 32.4725 34.6122 34.4292 30.5532C34.444 30.522 34.4604 30.4908 34.4753 30.458C34.4901 30.4253 34.5035 30.3941 34.5199 30.3614C34.5466 30.296 34.5749 30.2306 34.5972 30.1651C34.621 30.1027 34.6448 30.0373 34.6656 29.9733C34.6968 29.8767 34.725 29.7786 34.7488 29.6804C34.7533 29.6552 34.7607 29.6299 34.7652 29.6046C34.7697 29.5808 34.7756 29.5585 34.7786 29.5362C34.783 29.5139 34.789 29.4931 34.792 29.4723C34.7964 29.444 34.8024 29.4128 34.8068 29.3846C34.8098 29.3637 34.8143 29.3444 34.8172 29.3236C34.8187 29.3072 34.8217 29.2894 34.8247 29.273C34.8276 29.2448 34.8321 29.2165 34.8351 29.1883C34.838 29.1615 34.8425 29.1318 34.844 29.105C34.847 29.0827 34.8485 29.0604 34.8514 29.0396C34.8529 29.0173 34.8544 28.995 34.8544 28.9712C34.8574 28.943 34.8589 28.9132 34.8589 28.885C34.8603 28.8538 34.8603 28.824 34.8618 28.7928V28.6753C34.8618 28.6114 34.8589 28.546 34.8544 28.4821L34.8529 28.4776Z" fill="#0047A0"/>
<path d="M12.9223 13.9195L8.22314 22.0586L9.38974 22.7321L14.0888 14.593L12.9223 13.9195Z" fill="black"/>
<path d="M14.8891 15.0523L10.1899 23.1914L11.3565 23.8649L16.0556 15.7258L14.8891 15.0523Z" fill="black"/>
<path d="M16.8549 16.1851L12.1558 24.3242L13.3224 24.9978L18.0215 16.8587L16.8549 16.1851Z" fill="black"/>
<path d="M41.0772 13.9124L39.9106 14.5859L42.0078 18.2183L43.1744 17.5448L41.0772 13.9124Z" fill="black"/>
<path d="M43.6793 18.428L42.5127 19.1016L44.6099 22.734L45.7765 22.0604L43.6793 18.428Z" fill="black"/>
<path d="M39.1104 15.053L37.9438 15.7266L42.643 23.8657L43.8095 23.1921L39.1104 15.053Z" fill="black"/>
<path d="M37.1441 16.1858L35.9775 16.8594L38.0747 20.4918L39.2413 19.8182L37.1441 16.1858Z" fill="black"/>
<path d="M39.7472 20.6937L38.5806 21.3672L40.6777 24.9996L41.8443 24.3261L39.7472 20.6937Z" fill="black"/>
<path d="M38.0747 33.5434L35.9775 37.1758L37.1441 37.8493L39.2413 34.2169L38.0747 33.5434Z" fill="black"/>
<path d="M40.6772 29.0434L38.5801 32.6758L39.7467 33.3493L41.8438 29.7169L40.6772 29.0434Z" fill="black"/>
<path d="M40.042 34.684L37.9448 38.3164L39.1114 38.9899L41.2086 35.3575L40.042 34.684Z" fill="black"/>
<path d="M42.6436 30.1684L40.5464 33.8008L41.713 34.4743L43.8101 30.8419L42.6436 30.1684Z" fill="black"/>
<path d="M42.0073 35.8168L39.9102 39.4492L41.0767 40.1228L43.1739 36.4903L42.0073 35.8168Z" fill="black"/>
<path d="M44.6089 31.3168L42.5117 34.9492L43.6783 35.6228L45.7755 31.9903L44.6089 31.3168Z" fill="black"/>
<path d="M15.4208 32.6479L15.0342 31.9789L13.3229 29.0156L12.1572 29.6892L13.8671 32.6524L14.2537 33.3215L16.8556 37.828L18.0228 37.1545L15.4208 32.6479Z" fill="black"/>
<path d="M11.356 30.1624L10.1895 30.8359L12.2866 34.4683L13.4532 33.7948L11.356 30.1624Z" fill="black"/>
<path d="M13.9605 34.6546L12.7939 35.3281L14.8911 38.9605L16.0577 38.287L13.9605 34.6546Z" fill="black"/>
<path d="M11.4877 34.937L11.0684 34.2129L9.38979 31.3047L8.22412 31.9782L9.90275 34.8864L10.3205 35.6105L12.9225 40.1171L14.0896 39.4436L11.4877 34.937Z" fill="black"/>
</svg>
