<svg width="30" height="34" viewBox="0 0 30 34" fill="none" xmlns="http://www.w3.org/2000/svg">
<path d="M24.3859 5.16016H5.60844C4.3771 5.16016 3.37891 6.16126 3.37891 7.39619V23.9405C3.37891 25.1754 4.3771 26.1765 5.60844 26.1765H24.3859C25.6172 26.1765 26.6154 25.1754 26.6154 23.9405V7.39619C26.6154 6.16126 25.6172 5.16016 24.3859 5.16016Z" fill="white"/>
<path d="M9.16641 0.980469H20.8392C21.5336 0.980469 22.0989 1.54739 22.0989 2.24381V4.17767H7.90674V2.24381C7.90674 1.54739 8.47201 0.980469 9.16641 0.980469Z" fill="white"/>
<path d="M29.727 33.9827L24.3268 27.1797H21.9997L22.5965 27.9999H7.40296L7.9998 27.1797H5.6727L0.272461 33.9827H3.05005L3.87645 32.846V32.8547H26.1259L26.9465 33.9827H29.7241H29.727ZM4.96682 31.3496L6.48187 29.269H23.5176L25.0326 31.3496H4.96682Z" fill="white"/>
<path d="M13.5903 7.78125H7.98921C6.94761 7.78125 6.104 8.62731 6.104 9.67195V15.1282C6.104 16.1728 6.94761 17.0189 7.98921 17.0189H13.5903C13.9375 17.0189 14.2187 16.7369 14.2187 16.3887V8.41148C14.2187 8.06327 13.9375 7.78125 13.5903 7.78125Z" fill="#D60070"/>
<path d="M22.0125 7.78125H16.4228C16.0756 7.78125 15.7944 8.06327 15.7944 8.41148V16.3887C15.7944 16.7369 16.0756 17.0189 16.4228 17.0189H22.0125C23.0541 17.0189 23.8977 16.1728 23.8977 15.1282V9.67195C23.8977 8.62731 23.0541 7.78125 22.0125 7.78125Z" fill="#D60070"/>
<path d="M9.71197 22.4712C9.71197 23.2942 9.04627 23.9618 8.22561 23.9618C7.40496 23.9618 6.73926 23.2942 6.73926 22.4712C6.73926 21.6481 7.40496 20.9805 8.22561 20.9805C9.04627 20.9805 9.71197 21.6481 9.71197 22.4712Z" fill="#D60070"/>
<path d="M23.2798 22.4712C23.2798 23.2942 22.6141 23.9618 21.7935 23.9618C20.9728 23.9618 20.3071 23.2942 20.3071 22.4712C20.3071 21.6481 20.9728 20.9805 21.7935 20.9805C22.6141 20.9805 23.2798 21.6481 23.2798 22.4712Z" fill="#D60070"/>
</svg>
