<svg width="28" height="28" viewBox="0 0 28 28" fill="none" xmlns="http://www.w3.org/2000/svg">
<path d="M11.6321 3.32345C9.42855 3.32345 7.3152 4.19883 5.75703 5.75701C4.19885 7.31519 3.32347 9.42853 3.32347 11.6321C3.32347 13.8357 4.19885 15.9491 5.75703 17.5072C7.3152 19.0654 9.42855 19.9408 11.6321 19.9408C13.8357 19.9408 15.9491 19.0654 17.5073 17.5072C19.0654 15.9491 19.9408 13.8357 19.9408 11.6321C19.9408 9.42853 19.0654 7.31519 17.5073 5.75701C15.9491 4.19883 13.8357 3.32345 11.6321 3.32345ZM3.66548e-07 11.6321C3.50592e-06 9.7897 0.43766 7.97362 1.27693 6.33344C2.1162 4.69326 3.33308 3.2759 4.82735 2.19808C6.32162 1.12026 8.05055 0.412808 9.87177 0.133979C11.693 -0.14485 13.5544 0.0129211 15.3027 0.594301C17.051 1.17568 18.6362 2.16404 19.9277 3.47799C21.2193 4.79193 22.1802 6.39388 22.7315 8.15192C23.2827 9.90996 23.4085 11.7738 23.0984 13.5899C22.7883 15.4061 22.0512 17.1226 20.9478 18.5981L26.8249 24.4739C27.474 25.1227 27.4742 26.1748 26.8255 26.824C26.1765 27.4734 25.1239 27.4736 24.4747 26.8244L18.5998 20.9495C16.8708 22.2429 14.8159 23.0295 12.6652 23.2212C10.5145 23.413 8.35285 23.0023 6.42229 22.0353C4.49173 21.0682 2.86845 19.5828 1.73419 17.7455C0.59993 15.9081 -0.000541601 13.7914 3.66548e-07 11.6321Z" fill="white"/>
</svg>
