<svg width="20" height="38" viewBox="0 0 20 38" fill="none" xmlns="http://www.w3.org/2000/svg">
<path d="M16.0695 19.0163L10.0586 14.3658L11.9191 11.9609L17.93 16.6115C18.5942 17.1251 18.716 18.0802 18.202 18.744C17.6884 19.4082 16.7333 19.53 16.0695 19.016V19.0163Z" fill="white"/>
<path d="M3.95408 37.3696C3.01694 37.1129 2.46526 36.1451 2.72224 35.2079L6.02653 23.1466C6.23684 22.3791 7.02951 21.9272 7.79693 22.1375L9.33689 24.379L6.1157 36.1377C5.85904 37.0749 4.89122 37.6266 3.95408 37.3696Z" fill="white"/>
<path d="M13.0417 6.7097C14.2772 5.47421 14.2772 3.4711 13.0417 2.23562C11.8062 1.00013 9.80309 1.00013 8.56761 2.23562C7.33212 3.4711 7.33212 5.47421 8.56761 6.7097C9.80309 7.94518 11.8062 7.94518 13.0417 6.7097Z" fill="white"/>
<path d="M18.7864 35.4173L17.3075 28.5447C17.1611 27.8639 16.8329 27.2372 16.3582 26.7322C16.3298 26.7008 16.3026 26.6727 16.2748 26.6462C16.0917 26.463 15.8894 26.2981 15.6707 26.1543C15.6493 26.1402 15.6282 26.1252 15.6081 26.1095L11.8908 23.177C11.445 22.8254 11.2196 22.258 11.3021 21.6961L12.066 16.4965C12.1628 15.5724 12.2597 14.6481 12.3565 13.724C12.4777 12.5696 12.9274 11.393 12.7193 10.2238C12.3898 8.37447 9.89126 7.78157 8.39925 8.56177C8.39286 8.56497 8.38647 8.56817 8.38008 8.57168L3.69053 11.1038C3.13758 11.4023 2.7617 11.9006 2.60285 12.4609C2.57185 12.5344 2.54436 12.6105 2.52039 12.6885L1.06545 17.4224C0.778108 18.357 1.30293 19.3472 2.23752 19.6342C3.1721 19.9216 4.1623 19.3968 4.44932 18.4622L5.82947 13.9714L6.74583 13.4767L5.67796 20.7462C5.59422 21.3158 5.62395 21.8854 5.76586 22.4386C5.94229 23.3333 6.43324 24.1365 7.14888 24.7009L12.7519 29.121C13.1022 29.3975 13.3471 29.79 13.441 30.2263L14.7413 36.2698C14.9254 37.1248 15.6928 37.7455 16.5663 37.7455C16.6983 37.7455 16.831 37.7314 16.9607 37.7033L17.3663 37.616C18.3642 37.4012 19.0012 36.4149 18.7864 35.417V35.4173Z" fill="white"/>
<path d="M16.567 38.0038C15.5726 38.0038 14.6991 37.2975 14.4897 36.3245L13.1895 30.281C13.1083 29.9033 12.8964 29.5635 12.5931 29.3241L6.99002 24.904C6.22835 24.3031 5.70449 23.4481 5.51527 22.4959C5.36632 21.9113 5.33564 21.3101 5.42385 20.7089L6.41693 13.9485L6.04616 14.1486L4.69703 18.5383C4.36845 19.6072 3.23154 20.2097 2.16272 19.8811C1.64492 19.7219 1.22014 19.3706 0.966359 18.8918C0.712896 18.413 0.660797 17.8642 0.81997 17.3464L2.27522 12.6118C2.29984 12.5319 2.3286 12.452 2.36056 12.3747C2.54818 11.7278 2.97712 11.1959 3.56939 10.876L8.25893 8.34388C8.26532 8.34037 8.2714 8.33749 8.27747 8.33429L8.28099 8.33238C9.21397 7.84463 10.5145 7.84782 11.5175 8.34037C12.3159 8.73223 12.8334 9.3849 12.9747 10.1779C13.1227 11.008 12.9603 11.8284 12.8034 12.6217C12.7263 13.0117 12.6535 13.3802 12.6145 13.7503L12.3239 16.5228H12.3226C12.3073 16.6394 12.2069 17.3215 11.5587 21.7333C11.4897 22.2038 11.6786 22.6794 12.0519 22.9738L15.7692 25.9063C15.7826 25.9169 15.7973 25.9274 15.8139 25.9386C16.0453 26.0911 16.2617 26.2672 16.4564 26.4618C16.4874 26.4916 16.5174 26.5229 16.5484 26.5568C17.0544 27.096 17.4044 27.7646 17.5604 28.4902L19.0393 35.3628C19.2838 36.4997 18.5579 37.6238 17.421 37.8683L17.0154 37.9556C16.8677 37.9872 16.7169 38.0035 16.5666 38.0035L16.567 38.0038ZM7.07696 13.0053L5.9343 20.7837C5.85567 21.3194 5.88347 21.8544 6.01676 22.3745L6.01996 22.3885C6.18456 23.2228 6.64259 23.972 7.30964 24.4984L12.9127 28.9185C13.31 29.232 13.5877 29.6773 13.6942 30.1721L14.9944 36.2155C15.1529 36.9526 15.8142 37.4873 16.567 37.4873C16.6807 37.4873 16.7952 37.4752 16.9074 37.4509L17.313 37.3636C18.1715 37.1789 18.72 36.33 18.5352 35.4711L17.0563 28.5985C16.9198 27.9638 16.6136 27.3792 16.1713 26.9084L16.1684 26.9052C16.1441 26.8783 16.1208 26.8543 16.0971 26.8316L16.0936 26.8281C15.9229 26.6575 15.7334 26.5031 15.5301 26.3692C15.5007 26.35 15.4745 26.3311 15.4499 26.3113L11.7326 23.3787C11.2145 22.9703 10.9524 22.3109 11.0483 21.6579C11.0483 21.6579 11.7844 16.6474 11.8116 16.4633L12.1015 13.696C12.1427 13.3025 12.2213 12.9053 12.2974 12.5211C12.4518 11.7402 12.5978 11.0025 12.4668 10.268C12.3236 9.46449 11.748 9.02788 11.2903 8.80318C10.4276 8.37968 9.31465 8.37425 8.52006 8.78944C8.51559 8.79168 8.51112 8.79391 8.50632 8.79647L8.50281 8.79839L3.81422 11.3298C3.34086 11.5855 2.99918 12.0116 2.85247 12.53L2.84831 12.545L2.84224 12.5594C2.81443 12.6256 2.7895 12.694 2.76841 12.7627L1.31315 17.4973C1.19457 17.8834 1.23325 18.2925 1.42246 18.6492C1.61168 19.0063 1.92843 19.268 2.31422 19.3866C3.11104 19.6314 3.95869 19.1824 4.20352 18.3855L5.61467 13.7935L7.07696 13.004V13.0053Z" fill="#0055B8"/>
</svg>
