<svg width="30" height="34" viewBox="0 0 30 34" fill="none" xmlns="http://www.w3.org/2000/svg">
<path d="M8.89102 0.988281H20.5638C21.2582 0.988281 21.8235 1.5552 21.8235 2.25162V4.18549H7.63135V2.25162C7.63135 1.5552 8.19662 0.988281 8.89102 0.988281Z" fill="white"/>
<path d="M24.1159 5.18359H5.33842C4.10708 5.18359 3.10889 6.1847 3.10889 7.41962V23.9639C3.10889 25.1989 4.10708 26.2 5.33842 26.2H24.1159C25.3472 26.2 26.3454 25.1989 26.3454 23.9639V7.41962C26.3454 6.1847 25.3472 5.18359 24.1159 5.18359Z" fill="white"/>
<path d="M29.4545 34.0062L24.0543 27.2031H21.7272L22.324 28.0233H7.1305L7.72733 27.2031H5.40024L0 34.0062H2.77759L3.60399 32.8695V32.8781H25.8534L26.6741 34.0062H29.4517H29.4545ZM4.69436 31.373L6.20941 29.2924H23.2451L24.7602 31.373H4.69436Z" fill="white"/>
<path d="M13.3178 7.79297H7.71675C6.67515 7.79297 5.83154 8.63939 5.83154 9.68445V15.143C5.83154 16.188 6.67515 17.0345 7.71675 17.0345H13.3178C13.665 17.0345 13.9462 16.7523 13.9462 16.404V8.42346C13.9462 8.07511 13.665 7.79297 13.3178 7.79297Z" fill="#F9BD01"/>
<path d="M21.74 7.79297H16.1504C15.8032 7.79297 15.522 8.07511 15.522 8.42346V16.404C15.522 16.7523 15.8032 17.0345 16.1504 17.0345H21.74C22.7816 17.0345 23.6252 16.188 23.6252 15.143V9.68445C23.6252 8.63939 22.7816 7.79297 21.74 7.79297Z" fill="#F9BD01"/>
<path d="M9.43951 22.4874C9.43951 23.3108 8.77381 23.9787 7.95315 23.9787C7.1325 23.9787 6.4668 23.3108 6.4668 22.4874C6.4668 21.664 7.1325 20.9961 7.95315 20.9961C8.77381 20.9961 9.43951 21.664 9.43951 22.4874Z" fill="#F9BD01"/>
<path d="M23.0079 22.4874C23.0079 23.3108 22.3422 23.9787 21.5215 23.9787C20.7009 23.9787 20.0352 23.3108 20.0352 22.4874C20.0352 21.664 20.7009 20.9961 21.5215 20.9961C22.3422 20.9961 23.0079 21.664 23.0079 22.4874Z" fill="#F9BD01"/>
</svg>
