<svg width="24" height="24" viewBox="0 0 24 24" fill="none" xmlns="http://www.w3.org/2000/svg">
<g id="Arrow-Roadmap--Streamline-Core" clip-path="url(#clip0_176_3962)">
<g id="arrow-roadmap">
<path id="Vector 362" d="M12 19.2959H22.2143" stroke="#007841" stroke-width="2" stroke-linecap="round" stroke-linejoin="round"/>
<path id="Vector 365" d="M19.2957 16.3779L22.2141 19.2963L19.2957 22.2146" stroke="#007841" stroke-width="2" stroke-linecap="round" stroke-linejoin="round"/>
<path id="Ellipse 324" d="M6.16357 3.97513C6.16357 4.55569 6.3942 5.11247 6.80472 5.52299C7.21523 5.93351 7.77201 6.16413 8.35257 6.16413C8.93313 6.16413 9.48991 5.93351 9.90043 5.52299C10.3109 5.11247 10.5416 4.55569 10.5416 3.97513C10.5416 3.39457 10.3109 2.83779 9.90043 2.42728C9.48991 2.01676 8.93313 1.78613 8.35257 1.78613C7.77201 1.78613 7.21523 2.01676 6.80472 2.42728C6.3942 2.83779 6.16357 3.39457 6.16357 3.97513Z" stroke="#007841" stroke-width="2" stroke-linecap="round" stroke-linejoin="round"/>
<path id="Ellipse 325" d="M12 11.271C12 11.8516 12.2306 12.4084 12.6411 12.8189C13.0517 13.2294 13.6084 13.46 14.189 13.46C14.7696 13.46 15.3263 13.2294 15.7369 12.8189C16.1474 12.4084 16.378 11.8516 16.378 11.271C16.378 10.6905 16.1474 10.1337 15.7369 9.72318C15.3263 9.31266 14.7696 9.08203 14.189 9.08203C13.6084 9.08203 13.0517 9.31266 12.6411 9.72318C12.2306 10.1337 12 10.6905 12 11.271Z" stroke="#007841" stroke-width="2" stroke-linecap="round" stroke-linejoin="round"/>
<path id="Ellipse 326" d="M7.62183 19.2964C7.62183 19.877 7.85245 20.4338 8.26297 20.8443C8.67349 21.2548 9.23027 21.4854 9.81083 21.4854C10.3914 21.4854 10.9482 21.2548 11.3587 20.8443C11.7692 20.4338 11.9998 19.877 11.9998 19.2964C11.9998 18.7159 11.7692 18.1591 11.3587 17.7486C10.9482 17.338 10.3914 17.1074 9.81083 17.1074C9.23027 17.1074 8.67349 17.338 8.26297 17.7486C7.85245 18.1591 7.62183 18.7159 7.62183 19.2964Z" stroke="#007841" stroke-width="2" stroke-linecap="round" stroke-linejoin="round"/>
<path id="Vector 361" d="M12 11.2715H5.79841C3.58223 11.2715 1.78564 13.0681 1.78564 15.2843C1.78564 17.5004 3.58223 19.297 5.79841 19.297H7.6224" stroke="#007841" stroke-width="2" stroke-linecap="round" stroke-linejoin="round"/>
<path id="Vector 363" d="M16.3775 11.2715H18.5664C20.5811 11.2715 22.2143 9.63828 22.2143 7.62355C22.2143 5.60883 20.5811 3.97559 18.5664 3.97559H10.5408" stroke="#007841" stroke-width="2" stroke-linecap="round" stroke-linejoin="round"/>
<path id="Vector 364" d="M6.16322 3.97559H1.78564" stroke="#007841" stroke-width="2" stroke-linecap="round" stroke-linejoin="round"/>
</g>
</g>
<defs>
<clipPath id="clip0_176_3962">
<rect width="24" height="24" fill="white"/>
</clipPath>
</defs>
</svg>
