<svg width="26" height="26" viewBox="0 0 26 26" fill="none" xmlns="http://www.w3.org/2000/svg">
<g id="clarity:map-line" clip-path="url(#clip0_176_3938)">
<path id="Vector" d="M24.2603 4.47038C24.1717 4.39829 24.0672 4.34826 23.9554 4.32441C23.8437 4.30055 23.7279 4.30355 23.6175 4.33316L16.677 6.49982L9.72199 2.96816C9.62692 2.92416 9.52341 2.90137 9.41865 2.90137C9.3139 2.90137 9.21039 2.92416 9.11532 2.96816L1.8931 5.92204C1.76007 5.97669 1.64638 6.06981 1.56661 6.18948C1.48683 6.30914 1.4446 6.4499 1.44532 6.59371V21.3848C1.44591 21.5031 1.47555 21.6194 1.53162 21.7236C1.5877 21.8277 1.6685 21.9165 1.76692 21.9822C1.86534 22.0478 1.97837 22.0882 2.09608 22.0999C2.21379 22.1116 2.33257 22.0942 2.44199 22.0493L9.38977 19.1965L16.3159 22.7498C16.4187 22.8025 16.5326 22.8297 16.6481 22.8293C16.7199 22.8402 16.793 22.8402 16.8648 22.8293L24.087 20.5759C24.2392 20.5283 24.3713 20.4316 24.4627 20.3009C24.5542 20.1703 24.5998 20.013 24.5925 19.8537V5.05538C24.5888 4.93823 24.5566 4.82375 24.4987 4.72183C24.4408 4.61991 24.359 4.53361 24.2603 4.47038ZM23.112 19.3193L17.1031 21.197V19.5432H15.9475V20.9876L9.88088 17.8748V16.6543H8.72532V17.8965L2.88977 20.3015V7.07038L8.72532 4.66538V6.3626H9.88088V4.6726L15.9475 7.77816V9.29482H17.1031V7.94427L23.112 6.0376V19.3193Z" fill="#007841"/>
<path id="Vector_2" d="M15.9453 10.877H17.1009V13.6286H15.9453V10.877Z" fill="#007841"/>
<path id="Vector_3" d="M15.9453 15.21H17.1009V17.9616H15.9453V15.21Z" fill="#007841"/>
<path id="Vector_4" d="M8.72461 7.9873H9.88017V10.739H8.72461V7.9873Z" fill="#007841"/>
<path id="Vector_5" d="M8.72461 12.3721H9.88017V15.0804H8.72461V12.3721Z" fill="#007841"/>
</g>
<defs>
<clipPath id="clip0_176_3938">
<rect width="26" height="26" fill="white"/>
</clipPath>
</defs>
</svg>
